<svg width="250" height="68" viewBox="0 0 250 68" fill="none" xmlns="http://www.w3.org/2000/svg">
<g clip-path="url(#clip0_1268_13479)">
<path d="M244.174 49.2793H245.31V54.5654C245.31 55.0369 245.469 55.426 245.79 55.7265C246.111 56.0317 246.536 56.1831 247.067 56.1831C247.626 56.1831 248.064 56.0356 248.386 55.7414C248.707 55.4472 248.869 55.0448 248.869 54.5411V49.2793H250V54.6494C250 55.43 249.74 56.0403 249.215 56.475C248.694 56.9159 247.979 57.1332 247.076 57.1332C246.148 57.1332 245.432 56.9182 244.93 56.4922C244.427 56.0639 244.174 55.4472 244.174 54.6454V49.2793Z" fill="#EC2024"/>
<path d="M241.073 55.3701C240.686 55.8863 240.133 56.1593 239.415 56.1852C239.378 56.1852 239.339 56.1852 239.303 56.1852C238.615 56.1852 238.086 55.8903 237.712 55.2964C237.337 54.7017 237.148 53.9627 237.148 53.0754C237.148 52.1575 237.33 51.4279 237.698 50.8936C238.064 50.3601 238.599 50.0926 239.303 50.0926C239.339 50.0926 239.378 50.0926 239.415 50.095C240.926 50.142 241.682 51.1353 241.682 53.0762C241.682 54.0607 241.477 54.8257 241.073 55.3701ZM241.952 50.1828C241.357 49.5129 240.512 49.1685 239.415 49.1465H239.303C238.278 49.1465 237.465 49.5215 236.862 50.2731C236.259 51.0278 235.957 51.959 235.957 53.0762C235.957 54.2647 236.254 55.2399 236.844 55.9962C237.437 56.7564 238.255 57.1353 239.303 57.1353L239.416 57.1329C240.509 57.1125 241.354 56.754 241.948 56.0597C242.563 55.3403 242.874 54.344 242.874 53.0762C242.874 51.8398 242.564 50.8756 241.952 50.1828Z" fill="#EC2024"/>
<path d="M178.341 49.2793H177.209V57.0014H178.341V49.2793Z" fill="#EC2024"/>
<path d="M185.61 57.1081L181.318 51.4642V57.0014H180.24V49.2793H180.696L184.874 54.6188V49.2793H185.949V57.1081H185.61Z" fill="#EC2024"/>
<path d="M193.4 49.818L192.93 50.6865C192.359 50.2935 191.8 50.0942 191.251 50.0942C190.386 50.0942 189.696 50.3813 189.195 50.9509C188.691 51.5212 188.441 52.2752 188.441 53.2135C188.441 54.107 188.686 54.8241 189.18 55.3685C189.673 55.913 190.346 56.1837 191.194 56.1837C191.798 56.1837 192.287 56.0158 192.663 55.68V53.8701H191.513V52.9742H193.795V56.3366C193.492 56.5767 193.071 56.7689 192.532 56.9141C191.993 57.0592 191.468 57.1314 190.955 57.1314C189.812 57.1314 188.907 56.7728 188.246 56.0495C187.582 55.3262 187.249 54.3667 187.249 53.1687C187.249 51.9739 187.613 51.0027 188.341 50.2613C189.069 49.5176 190.052 49.1465 191.286 49.1465C192.151 49.1481 192.857 49.3716 193.4 49.818Z" fill="#EC2024"/>
<path d="M205.378 57.1081H205.021L203.042 51.7859L201.195 57.1081H200.839L198.221 49.2793H199.398L201.066 54.6721L202.891 49.2793H203.286L205.089 54.6619L206.784 49.2793H207.962L205.378 57.1081Z" fill="#EC2024"/>
<path d="M210.215 49.2793H209.083V57.0014H210.215V49.2793Z" fill="#EC2024"/>
<path d="M215.141 50.2278V57.0014H214.007V50.2278H211.366V49.2793H217.902V50.2278H215.141Z" fill="#EC2024"/>
<path d="M223.613 57.0014V53.271H219.985V57.0014H218.851V49.2793H219.985V52.3735H223.613V49.2793H224.746V57.0014H223.613Z" fill="#EC2024"/>
<path d="M232.766 53.5455V57.0014H231.634V53.5455L228.958 49.2793H230.128L232.194 52.652L234.262 49.2793H235.432L232.766 53.5455Z" fill="#EC2024"/>
<path d="M172.819 52.7629C172.643 52.781 172.451 52.7919 172.241 52.7919C171.984 52.7919 171.718 52.7739 171.446 52.7386V50.2289C171.782 50.1944 172.002 50.1779 172.114 50.1779C172.374 50.1779 172.61 50.1905 172.819 50.2156C173.187 50.2587 173.48 50.3419 173.692 50.4611C174.023 50.6518 174.19 50.964 174.19 51.3955C174.19 51.9203 174.035 52.2828 173.725 52.486C173.51 52.6256 173.21 52.7182 172.819 52.7629ZM173.753 53.4494C174.197 53.3576 174.577 53.1136 174.898 52.726C175.219 52.3369 175.38 51.8999 175.38 51.4151C175.38 50.0508 174.525 49.3165 172.819 49.2137C172.68 49.2059 172.538 49.2012 172.388 49.2012C172.137 49.2012 171.742 49.2137 171.195 49.2404C170.649 49.2671 170.355 49.2796 170.313 49.2796V57.0017H171.446V53.6361C171.994 53.6682 172.394 53.6863 172.647 53.6863L172.819 53.9405L174.863 57.0009H176.16L173.753 53.4494Z" fill="#EC2024"/>
<path d="M166 54.5988H164.766L166 51.3415L166.053 51.2003L167.23 54.5988H166ZM166.255 49.1738H165.957L162.584 57.0026H163.853L164.465 55.3763H167.552L168.124 57.0026H169.383L166.255 49.1738Z" fill="#EC2024"/>
<path d="M141.074 49.9353V49.1445C141.827 49.1524 142.409 49.3101 142.822 49.6215L142.351 50.4343C141.922 50.0985 141.534 49.9322 141.196 49.9322C141.156 49.933 141.113 49.933 141.074 49.9353Z" fill="#EC2024"/>
<path d="M149.859 56.6516L150.274 55.6812C150.485 55.8247 150.75 55.9456 151.065 56.0413C151.38 56.1378 151.662 56.1848 151.911 56.1848C152.353 56.1848 152.709 56.0719 152.975 55.8467C153.244 55.6239 153.377 55.3368 153.377 54.9884C153.377 54.728 153.305 54.4879 153.156 54.2628C153.008 54.0415 152.631 53.7999 152.03 53.5331L151.36 53.2421C150.796 52.9965 150.399 52.7055 150.177 52.3697C149.95 52.0292 149.835 51.626 149.835 51.1521C149.835 50.5747 150.058 50.0946 150.493 49.718C150.934 49.3375 151.496 49.1484 152.181 49.1484C153.101 49.1484 153.738 49.2881 154.1 49.5658L153.765 50.4821C153.614 50.3794 153.383 50.2829 153.072 50.1887C152.763 50.0907 152.475 50.0451 152.211 50.0451C151.827 50.0451 151.522 50.144 151.302 50.3488C151.079 50.5543 150.968 50.8163 150.968 51.1356C150.968 51.3326 151.01 51.5122 151.089 51.673C151.168 51.8346 151.276 51.9696 151.42 52.0786C151.561 52.1877 151.852 52.3407 152.291 52.5399L152.971 52.8388C153.537 53.0867 153.933 53.3857 154.162 53.7308C154.391 54.0784 154.505 54.5177 154.505 55.0528C154.505 55.6317 154.256 56.126 153.753 56.5277C153.252 56.9317 152.584 57.1341 151.746 57.1341C151.01 57.1333 150.383 56.9709 149.859 56.6516Z" fill="#EC2024"/>
<path d="M160.578 57.0014V53.271H156.95V57.0014H155.816V49.2793H156.95V52.3735H160.578V49.2793H161.711V57.0014H160.578Z" fill="#EC2024"/>
<path d="M141.362 56.2131C141.26 56.2131 141.164 56.2084 141.074 56.2005C140.114 56.1127 139.631 55.569 139.631 54.5656C139.631 54.0957 139.811 53.6477 140.169 53.217H142.454V55.3478C142.454 55.5902 142.474 55.7902 142.515 55.9526C142.259 56.1276 141.873 56.2131 141.362 56.2131ZM145.186 56.0162C144.908 56.1433 144.669 56.2131 144.465 56.2131C144.122 56.2131 143.88 56.1252 143.741 55.9464C143.6 55.7698 143.53 55.4419 143.53 54.9547V53.217H144.943V52.3728H143.53V51.0093L142.453 51.3945V52.3595H140.346C139.908 52.0418 139.688 51.6566 139.688 51.1992C139.688 50.3904 140.15 49.9683 141.074 49.9353V49.1445H141.021C140.287 49.1445 139.703 49.3344 139.268 49.7164C138.83 50.0946 138.612 50.5559 138.612 51.0956C138.612 51.6236 138.878 52.1359 139.411 52.6278C139.063 52.9471 138.821 53.257 138.693 53.5543C138.564 53.8532 138.499 54.2055 138.499 54.6158C138.499 55.409 138.713 56.0256 139.145 56.4579C139.576 56.8901 140.185 57.109 140.974 57.109L141.074 57.1074C141.808 57.0988 142.433 56.9717 142.958 56.734C143.288 56.9835 143.627 57.109 143.979 57.109C144.489 57.109 144.943 57.0541 145.337 56.9498L145.186 56.0162Z" fill="#EC2024"/>
<path d="M113.05 57.1081H112.695L110.714 51.7859L108.869 57.1081H108.514L105.894 49.2793H107.072L108.738 54.6721L110.563 49.2793H110.96L112.762 54.6619L114.457 49.2793H115.636L113.05 57.1081Z" fill="#EC2024"/>
<path d="M117.89 49.2793H116.756V57.0014H117.89V49.2793Z" fill="#EC2024"/>
<path d="M125.156 57.1081L120.866 51.4642V57.0014H119.789V49.2793H120.242L124.418 54.6188V49.2793H125.497V57.1081H125.156Z" fill="#EC2024"/>
<path d="M132.949 49.818L132.476 50.6865C131.906 50.2935 131.347 50.0942 130.801 50.0942C129.932 50.0942 129.245 50.3813 128.742 50.9509C128.239 51.5212 127.99 52.2752 127.99 53.2135C127.99 54.107 128.235 54.8241 128.728 55.3685C129.222 55.913 129.892 56.1837 130.743 56.1837C131.346 56.1837 131.835 56.0158 132.21 55.68V53.8701H131.061V52.9742H133.344V56.3366C133.041 56.5767 132.619 56.7689 132.081 56.9141C131.54 57.06 131.014 57.1314 130.503 57.1314C129.361 57.1314 128.455 56.7728 127.793 56.0495C127.128 55.3262 126.798 54.3667 126.798 53.1687C126.798 51.9739 127.16 51.0027 127.888 50.2613C128.616 49.5176 129.599 49.1465 130.833 49.1465C131.7 49.1481 132.404 49.3716 132.949 49.818Z" fill="#EC2024"/>
<path d="M103.568 55.3701C103.181 55.8863 102.628 56.1593 101.91 56.1852C101.873 56.1852 101.834 56.1852 101.798 56.1852C101.11 56.1852 100.581 55.8903 100.207 55.2964C99.8317 54.7017 99.643 53.9627 99.643 53.0754C99.643 52.1575 99.8246 51.4279 100.193 50.8936C100.559 50.3601 101.095 50.0926 101.798 50.0926C101.834 50.0926 101.873 50.0926 101.91 50.095C103.421 50.142 104.175 51.1353 104.175 53.0762C104.175 54.0607 103.975 54.8257 103.568 55.3701ZM104.447 50.1828C103.852 49.5129 103.008 49.1685 101.91 49.1465H101.798C100.773 49.1465 99.9576 49.5215 99.3566 50.2731C98.7517 51.0278 98.4512 51.959 98.4512 53.0762C98.4512 54.2647 98.747 55.2399 99.3378 55.9962C99.9303 56.7564 100.75 57.1353 101.797 57.1353L101.909 57.1329C103.004 57.1125 103.847 56.754 104.441 56.0597C105.056 55.3403 105.367 54.344 105.367 53.0762C105.368 51.8398 105.06 50.8756 104.447 50.1828Z" fill="#EC2024"/>
<path d="M89.997 49.818L89.5267 50.6865C88.9562 50.2935 88.3982 50.0942 87.8504 50.0942C86.9817 50.0942 86.293 50.3813 85.7906 50.9509C85.2898 51.5212 85.0386 52.2752 85.0386 53.2135C85.0386 54.107 85.2859 54.8241 85.7781 55.3685C86.2703 55.913 86.9434 56.1837 87.7917 56.1837C88.3982 56.1837 88.8865 56.0158 89.2606 55.68V53.8701H88.1126V52.9742H90.393V56.3366C90.0925 56.5767 89.6699 56.7689 89.1299 56.9141C88.5899 57.0592 88.0648 57.1314 87.5538 57.1314C86.4112 57.1314 85.5042 56.7728 84.8437 56.0495C84.1793 55.3262 83.8467 54.3667 83.8467 53.1687C83.8467 51.9739 84.2106 51.0027 84.9384 50.2613C85.6662 49.5176 86.6491 49.1465 87.8833 49.1465C88.748 49.1481 89.4531 49.3716 89.997 49.818Z" fill="#EC2024"/>
<path d="M94.6562 52.7629C94.4801 52.781 94.2884 52.7919 94.0779 52.7919C93.8204 52.7919 93.5567 52.7739 93.2851 52.7386V50.2289C93.6177 50.1944 93.8408 50.1779 93.9511 50.1779C94.2109 50.1779 94.4481 50.1905 94.6562 50.2156C95.0264 50.2587 95.3159 50.3419 95.5288 50.4611C95.8622 50.6518 96.0297 50.964 96.0297 51.3955C96.0297 51.9203 95.8724 52.2828 95.5617 52.486C95.3488 52.6256 95.0467 52.7182 94.6562 52.7629ZM95.5922 53.4494C96.0336 53.3576 96.4139 53.1136 96.7363 52.726C97.0572 52.3369 97.2168 51.8999 97.2168 51.4151C97.2168 50.0508 96.363 49.3165 94.6562 49.2137C94.5193 49.2059 94.3745 49.2012 94.225 49.2012C93.9754 49.2012 93.5794 49.2137 93.0316 49.2404C92.4853 49.2671 92.1911 49.2796 92.1504 49.2796V57.0017H93.2851V53.6361C93.833 53.6682 94.2329 53.6863 94.4872 53.6863L94.657 53.9405L96.7003 57.0009H98.0002L95.5922 53.4494Z" fill="#EC2024"/>
<path fill-rule="evenodd" clip-rule="evenodd" d="M231.256 33.8752L227.755 34.0909L228.907 31.4926L229.815 29.5415L230.555 27.9395L231.256 26.4653L231.297 26.379L234.757 33.6578L231.256 33.8752ZM246.825 37.3184L244.765 34.0125L240.81 27.5856L235.825 19.549L233.273 15.4255L231.625 12.7754H231.213L229.691 15.3314L228.413 17.5414L227.26 19.5348L226.23 21.3973L224.748 23.9533L223.058 26.9878L221.658 29.4567L220.217 32.0135L219.227 33.7026L218.198 35.5219L214.574 41.8922L222.441 46.5264L223.099 45.0123L223.843 43.3216L224.501 41.8922L225.118 40.5475L237.598 39.7693L241.264 46.5264L249.42 41.4435L246.825 37.3184Z" fill="#012F67"/>
<path fill-rule="evenodd" clip-rule="evenodd" d="M121.268 19.3592C122.45 18.089 124.234 16.8824 126.623 15.7417C129.013 14.6003 131.937 13.8573 135.397 13.5098L136.55 20.7894C135.561 20.7894 134.792 20.8121 134.243 20.8545C133.695 20.8976 133.125 20.9643 132.534 21.049C131.943 21.1361 131.484 21.2303 131.154 21.3307C130.825 21.4319 130.426 21.5849 129.961 21.7865C129.193 22.1913 128.806 22.7687 128.806 23.5187C128.806 23.9243 129.025 24.2703 129.464 24.5598C129.85 24.9065 130.605 25.3678 131.73 25.9468L132.554 26.3791L133.255 26.8122L133.873 27.1597C136.949 28.8919 138.486 31.0298 138.486 33.5716L138.445 34.2228L138.402 34.8716C138.183 36.257 137.628 37.5515 136.736 38.7503C135.843 39.9482 134.629 41.0552 133.09 42.0656C131.553 43.0753 129.781 43.8991 127.776 44.5338C126.844 44.8515 125.814 45.1261 124.688 45.3583C123.561 45.5874 122.423 45.7615 121.268 45.8784L120.116 38.5102C122.312 38.5102 124.255 38.2435 125.944 37.7092C127.632 37.1741 128.477 36.4171 128.477 35.4349C128.477 35.0308 128.265 34.648 127.839 34.2871C127.413 33.927 127.022 33.6304 126.664 33.399C126.527 33.2845 126.158 33.053 125.552 32.7055L123.204 31.2322C120.293 29.3258 119.022 27.1746 119.022 24.7763C119.022 23.7941 119.1 22.7836 119.621 21.7426C120.008 20.9047 120.556 20.1115 121.268 19.3592Z" fill="#012F67"/>
<path fill-rule="evenodd" clip-rule="evenodd" d="M140.97 14.291H150.69L150.566 17.2369L150.524 20.6166V25.9891L161.235 25.1229L161.193 21.613V17.8873L161.069 14.291H170.626L170.583 16.0672L170.541 18.8405V21.3525L170.501 23.8653L170.459 26.5955V30.3651L170.501 32.6622L170.541 34.265L170.583 38.9447L170.626 45.0977H161.069L161.15 38.8137L161.234 32.4888L150.524 33.3542V37.1254L150.565 40.2031L150.689 45.0977H141.091L141.133 38.0354L141.173 30.8845C141.173 29.0652 141.139 26.1766 141.071 22.2202C141.004 18.2638 140.97 15.6184 140.97 14.291Z" fill="#012F67"/>
<path fill-rule="evenodd" clip-rule="evenodd" d="M173.486 14.291H183.083L182.959 20.4872L182.837 28.676L182.959 37.9036L183.083 45.0977H173.486L173.568 31.232L173.486 14.291Z" fill="#012F67"/>
<path d="M195.504 30.8866L195.423 33.0974L195.545 37.559L195.629 39.6387L195.711 41.8064L195.752 45.5313H186.156L186.195 40.9403V37.8194L186.238 36.0001L186.278 33.0095L186.32 30.6701L186.363 25.7315L186.32 19.0152L186.156 13.8593H195.752L195.629 18.9281L195.545 24.0408L195.504 25.5581V28.0709H195.67L196.165 27.4206L196.864 26.4674L197.481 25.5997L198.718 23.9538L200.076 22.1776L201.395 20.4885L202.507 18.9712L203.33 17.8894L204.279 16.6749L205.513 15.0722L206.626 13.5996L213.461 19.9692L204.771 29.3717L206.092 30.8427L206.914 31.7543L208.848 33.9203L211.281 36.6497L213.833 39.5093L206.543 46.1832L204.855 43.7983L202.836 41.0697L201.561 39.2951L200.654 38.0367L199.913 36.9533L198.883 35.5223L195.67 30.8866H195.504Z" fill="#012F67"/>
<path fill-rule="evenodd" clip-rule="evenodd" d="M100.241 33.8752L96.7393 34.0909L97.892 31.4926L98.7975 29.5415L99.5394 27.9395L100.281 26.379L103.741 33.6578L100.241 33.8752ZM115.808 37.3184L113.75 34.0125L109.797 27.5856L104.812 19.549L102.257 15.4255L100.611 12.7754H100.198L98.6738 15.3314L97.3982 17.5414L96.2431 19.5348L95.2133 21.3973L93.731 23.9533L92.0407 26.9878L90.6406 29.4567L89.1999 32.0135L88.2107 33.7026L87.1824 35.5219L83.5566 41.8922L91.4232 46.5264L92.0829 45.0123L92.8225 43.3216L93.483 41.8922L94.1004 40.5475L106.582 39.7693L110.247 46.5264L118.401 41.4435L115.808 37.3184Z" fill="#012F67"/>
<path d="M38.9078 0L43.2245 6.84105L12.6223 60.4256L77.9549 60.4342L82.7944 67.6824L0 67.7083L38.9078 0Z" fill="#012F67"/>
<path fill-rule="evenodd" clip-rule="evenodd" d="M67.1565 57.3862L67.0524 51.3908H67.5228L69.2867 54.0355L71.5187 57.3862H67.1565ZM60.24 57.3862H58.3986L58.2945 51.3908H66.014L66.1157 57.3862H60.24ZM58.1818 44.8055H63.1317L65.9725 49.0702L65.9952 50.3341H58.2758L58.1818 44.8055ZM58.0574 37.5448H58.2898L62.425 43.7464H58.1638L58.0574 37.5448ZM51.0267 57.3862H49.6329L49.5288 51.3908H57.2404L57.3429 57.3862H51.0267ZM49.4161 44.8055H57.1254L57.2216 50.3341H49.5124L49.4161 44.8055ZM49.2917 37.5448H57.0033L57.1097 43.7464H49.3981L49.2917 37.5448ZM49.1727 30.67H53.7078L56.9681 35.5615L56.9845 36.4833H49.2729L49.1727 30.67ZM49.0546 23.6979H49.0608L52.9996 29.6077H49.1547L49.0546 23.6979ZM44.1947 57.3862H40.8656L40.7631 51.3908H48.4747L48.5772 57.3862H44.1947ZM40.6504 44.8055H48.3596L48.4559 50.3341H40.7443L40.6504 44.8055ZM40.5932 41.5404L39.5493 42.179L39.5759 43.7464H36.9879L35.2568 44.8055H39.5939L39.6901 50.3341H33.6384L33.4428 51.3916H39.7089L39.8114 57.387H32.0998L32.0607 55.1001L31.0121 55.4562L31.0449 57.387H23.266L21.6007 57.4497L21.5662 57.387H19.4791L20.5724 55.6045L20.4722 55.4249L21.2587 54.161L21.5263 54.0472L23.1533 51.3924H27.9013L28.7966 51.019L28.9092 50.3349H23.8037L27.1923 44.8063H29.81L29.9837 43.7472H27.8418L30.7295 39.0369L30.7867 42.35L31.8306 41.6918L31.7594 37.5456H38.4098L38.8434 37.2686L38.2424 36.4833H32.2947L35.8609 30.67H39.3521L39.4115 34.0968L40.4641 33.9477L40.4093 30.67H48.1186L48.2188 36.4833H46.4368L45.9806 37.5456H48.2368L48.3432 43.7472H40.6316L40.5932 41.5404ZM37.9238 27.3083L39.2566 25.132L39.3341 29.6077H36.5136L37.9238 27.3083ZM44.1947 23.6979H47.9981L48.0998 29.6077H40.3882L40.288 23.6979H44.1947ZM44.1947 17.0805L44.4107 16.7259L48.351 22.6349H40.7889L44.1947 17.0805ZM69.2859 46.9802L44.4803 9.12305L16.3926 58.3637H76.744L69.2859 46.9802Z" fill="#012F67"/>
<path d="M37.9682 34.9217L46.8568 33.6562L43.2718 41.9973L41.4076 40.1262L33.966 44.6921L32.1919 54.2225L22.4824 57.5379L21.0205 54.92L29.4122 51.4367L30.784 43.098L39.8526 37.3772L37.9682 34.9217Z" fill="#EC2024"/>
</g>
<defs>
<clipPath id="clip0_1268_13479">
<rect width="250" height="67.7083" fill="white"/>
</clipPath>
</defs>
</svg>
