<svg width="40" height="40" viewBox="0 0 40 40" fill="none" xmlns="http://www.w3.org/2000/svg">
<rect width="40" height="40" rx="20" fill="#250075"/>
<path d="M20 32C18.36 32 16.81 31.685 15.35 31.055C13.89 30.425 12.615 29.565 11.525 28.475C10.435 27.385 9.575 26.11 8.945 24.65C8.315 23.19 8 21.64 8 20C8 18.34 8.315 16.785 8.945 15.335C9.575 13.885 10.435 12.615 11.525 11.525C12.615 10.435 13.89 9.575 15.35 8.945C16.81 8.315 18.36 8 20 8C21.66 8 23.215 8.315 24.665 8.945C26.115 9.575 27.385 10.435 28.475 11.525C29.565 12.615 30.425 13.885 31.055 15.335C31.685 16.785 32 18.34 32 20C32 21.64 31.685 23.19 31.055 24.65C30.425 26.11 29.565 27.385 28.475 28.475C27.385 29.565 26.115 30.425 24.665 31.055C23.215 31.685 21.66 32 20 32ZM20 29.54C20.52 28.82 20.97 28.07 21.35 27.29C21.73 26.51 22.04 25.68 22.28 24.8H17.72C17.96 25.68 18.27 26.51 18.65 27.29C19.03 28.07 19.48 28.82 20 29.54ZM16.88 29.06C16.52 28.4 16.205 27.715 15.935 27.005C15.665 26.295 15.44 25.56 15.26 24.8H11.72C12.3 25.8 13.025 26.67 13.895 27.41C14.765 28.15 15.76 28.7 16.88 29.06ZM23.12 29.06C24.24 28.7 25.235 28.15 26.105 27.41C26.975 26.67 27.7 25.8 28.28 24.8H24.74C24.56 25.56 24.335 26.295 24.065 27.005C23.795 27.715 23.48 28.4 23.12 29.06ZM10.7 22.4H14.78C14.72 22 14.675 21.605 14.645 21.215C14.615 20.825 14.6 20.42 14.6 20C14.6 19.58 14.615 19.175 14.645 18.785C14.675 18.395 14.72 18 14.78 17.6H10.7C10.6 18 10.525 18.395 10.475 18.785C10.425 19.175 10.4 19.58 10.4 20C10.4 20.42 10.425 20.825 10.475 21.215C10.525 21.605 10.6 22 10.7 22.4ZM17.18 22.4H22.82C22.88 22 22.925 21.605 22.955 21.215C22.985 20.825 23 20.42 23 20C23 19.58 22.985 19.175 22.955 18.785C22.925 18.395 22.88 18 22.82 17.6H17.18C17.12 18 17.075 18.395 17.045 18.785C17.015 19.175 17 19.58 17 20C17 20.42 17.015 20.825 17.045 21.215C17.075 21.605 17.12 22 17.18 22.4ZM25.22 22.4H29.3C29.4 22 29.475 21.605 29.525 21.215C29.575 20.825 29.6 20.42 29.6 20C29.6 19.58 29.575 19.175 29.525 18.785C29.475 18.395 29.4 18 29.3 17.6H25.22C25.28 18 25.325 18.395 25.355 18.785C25.385 19.175 25.4 19.58 25.4 20C25.4 20.42 25.385 20.825 25.355 21.215C25.325 21.605 25.28 22 25.22 22.4ZM24.74 15.2H28.28C27.7 14.2 26.975 13.33 26.105 12.59C25.235 11.85 24.24 11.3 23.12 10.94C23.48 11.6 23.795 12.285 24.065 12.995C24.335 13.705 24.56 14.44 24.74 15.2ZM17.72 15.2H22.28C22.04 14.32 21.73 13.49 21.35 12.71C20.97 11.93 20.52 11.18 20 10.46C19.48 11.18 19.03 11.93 18.65 12.71C18.27 13.49 17.96 14.32 17.72 15.2ZM11.72 15.2H15.26C15.44 14.44 15.665 13.705 15.935 12.995C16.205 12.285 16.52 11.6 16.88 10.94C15.76 11.3 14.765 11.85 13.895 12.59C13.025 13.33 12.3 14.2 11.72 15.2Z" fill="white"/>
</svg>
