<svg width="40" height="40" viewBox="0 0 40 40" fill="none" xmlns="http://www.w3.org/2000/svg">
<rect width="40" height="40" rx="20" fill="#EB5757"/>
<path d="M22.1178 14.8086C21.3221 14.8086 20.6748 15.456 20.6748 16.2516V21.5527C20.6748 22.3484 21.3221 22.9957 22.1178 22.9957C22.9135 22.9957 23.5608 22.3484 23.5608 21.5527V16.2516C23.5608 15.4559 22.9134 14.8086 22.1178 14.8086ZM22.6233 21.5527C22.6233 21.8314 22.3966 22.0582 22.1178 22.0582C21.8391 22.0582 21.6123 21.8314 21.6123 21.5527V16.2516C21.6123 15.9728 21.8391 15.7461 22.1178 15.7461C22.3966 15.7461 22.6233 15.9728 22.6233 16.2516V21.5527Z" fill="white"/>
<path d="M22.1178 23.9531C21.3221 23.9531 20.6748 24.6005 20.6748 25.3961C20.6748 26.1918 21.3221 26.8391 22.1178 26.8391C22.9135 26.8391 23.5608 26.1918 23.5608 25.3961C23.5608 24.6005 22.9134 23.9531 22.1178 23.9531ZM22.1178 25.9017C21.8391 25.9017 21.6123 25.6749 21.6123 25.3962C21.6123 25.1174 21.8391 24.8906 22.1178 24.8906C22.3966 24.8906 22.6233 25.1174 22.6233 25.3962C22.6233 25.6749 22.3966 25.9017 22.1178 25.9017Z" fill="white"/>
<path d="M31.7478 25.9262L23.786 11.9733C23.0503 10.673 21.1818 10.6786 20.4501 11.9718L16.9386 18.1256V16.5535C16.9386 16.2947 16.7287 16.0848 16.4698 16.0848H15.9973V14.669H16.4698C16.7287 14.669 16.9386 14.4591 16.9386 14.2003V11.847C16.9386 11.5882 16.7287 11.3783 16.4698 11.3783H9.41005C9.15122 11.3783 8.94132 11.5882 8.94132 11.847V13.7315H8.46874C8.2099 13.7315 8 13.9414 8 14.2003V16.5535C8 16.8124 8.2099 17.0222 8.46874 17.0222H8.94132V20.7913H8.46874C8.2099 20.7913 8 21.0012 8 21.26V23.6132C8 23.8721 8.2099 24.082 8.46874 24.082H8.94132V25.4978H8.46874C8.2099 25.4978 8 25.7077 8 25.9665V28.3197C8 28.5786 8.2099 28.7885 8.46874 28.7885H30.0803C31.5469 28.7885 32.4731 27.2081 31.7478 25.9262ZM16.0011 17.0222V18.438H9.87879V17.0222H16.0011ZM16.0011 19.3755V19.7685L15.4175 20.7913H9.87879V19.3755H16.0011ZM9.87879 12.3158H16.0011V13.7315C15.7889 13.7315 10.0915 13.7315 9.87879 13.7315V12.3158ZM8.93747 16.0848V14.669H15.0597V16.0848C14.847 16.0848 9.14953 16.0848 8.93747 16.0848ZM8.93747 23.1446V21.7288H14.8825L14.0746 23.1446C13.1696 23.1446 9.54092 23.1446 8.93747 23.1446ZM8.93747 27.851V26.4353H12.2873C12.1762 26.9024 12.2424 27.4045 12.5076 27.851H8.93747ZM9.87879 25.4978V24.082H13.5397L12.7318 25.4978H9.87879ZM30.0803 27.851C29.5136 27.851 14.9486 27.851 14.1549 27.851C13.405 27.851 12.9337 27.0435 13.3016 26.3907L13.3016 26.3908L21.2651 12.435C21.6396 11.7731 22.5938 11.7701 22.9708 12.4365L30.9327 26.3893C31.302 27.042 30.8311 27.851 30.0803 27.851Z" fill="white"/>
</svg>
