<svg width="56" height="56" viewBox="0 0 56 56" fill="none" xmlns="http://www.w3.org/2000/svg">
<rect width="56" height="56" rx="28" fill="black"/>
<path d="M39.4503 16.7097C36.4132 13.6726 32.3752 12 28.08 12C25.6999 12 23.4144 12.5071 21.2803 13.5056C20.755 12.9958 20.0625 12.715 19.3246 12.715C18.5724 12.715 17.8669 13.0062 17.3382 13.535C16.4454 14.4277 16.4501 15.5187 16.8151 16.6065C15.3447 18.0493 14.18 19.7325 13.3525 21.615C12.4551 23.6567 12 25.8319 12 28.08C12 32.3752 13.6726 36.4132 16.7097 39.4503C19.7468 42.4874 23.7848 44.16 28.08 44.16C32.3752 44.16 36.4132 42.4874 39.4503 39.4503C42.4874 36.4132 44.16 32.3752 44.16 28.08C44.16 23.7848 42.4874 19.7468 39.4503 16.7097ZM17.9826 14.1795C18.3392 13.8228 18.8158 13.6265 19.3245 13.6265C19.8333 13.6265 20.31 13.8229 20.6665 14.1795C21.7665 15.2795 20.8184 16.9965 19.5648 18.9626C19.4836 19.0899 19.4039 19.2148 19.3274 19.3365C19.2312 19.1807 19.1307 19.0212 19.0278 18.858C17.7743 16.8685 16.9013 15.2607 17.9826 14.1795ZM17.1955 17.5162C17.5122 18.162 17.9052 18.786 18.2567 19.3439C18.506 19.7393 18.7413 20.1128 18.9248 20.4483C19.0047 20.5945 19.1579 20.6855 19.3246 20.6855C19.4912 20.6855 19.6445 20.5946 19.7245 20.4484C19.8815 20.1611 20.101 19.8169 20.3334 19.4525C20.888 18.5828 21.5166 17.5969 21.843 16.593C22.1362 15.6911 22.1278 14.91 21.8228 14.2585C23.7903 13.3648 25.8927 12.9114 28.08 12.9114C29.6724 12.9114 31.208 13.1587 32.6511 13.6158C33.262 15.6589 33.3232 17.1411 32.8321 18.023C32.3749 18.844 31.4635 19.0783 30.6594 19.2851C30.468 19.3342 30.2873 19.3807 30.1154 19.4338C29.6806 19.5683 29.2095 19.7697 29.0127 20.2437C28.8459 20.6454 28.9224 21.126 29.2534 21.7563C29.5724 22.3636 30.4237 22.9638 31.3249 23.5992C31.7886 23.9261 32.268 24.2642 32.6288 24.577C32.8788 24.7937 33.0047 25.0135 32.9657 25.1651C32.9296 25.3048 32.7151 25.5045 32.2292 25.608C32.1081 25.6338 31.7235 25.6525 31.3163 25.6723C30.687 25.703 29.8552 25.7436 29.0423 25.8453C28.9207 25.5949 28.7561 25.3633 28.5453 25.1525C28.0165 24.6236 27.311 24.3324 26.5588 24.3324C25.8065 24.3324 25.101 24.6236 24.5723 25.1524C22.8904 26.8342 24.3935 29.2197 25.4911 30.9615C25.7402 31.3569 25.9755 31.7304 26.1589 32.0658C26.2389 32.212 26.3922 32.3029 26.5588 32.3029C26.7254 32.3029 26.8787 32.212 26.9586 32.0658C27.1157 31.7785 27.3352 31.4343 27.5676 31.0698C27.6869 30.8828 27.8095 30.6901 27.9319 30.4934C28.9378 31.6022 29.4692 32.6263 29.3689 33.2917C29.3174 33.6337 29.0938 33.9052 28.6852 34.1218C27.047 34.9902 26.0262 34.0388 25.1978 33.0787C24.8431 32.6676 24.4303 31.8676 23.9932 31.0208C23.1357 29.3592 22.1638 27.4761 20.8892 26.9793C20.7834 26.938 20.667 26.9075 20.5322 26.8721C19.6844 26.6499 18.1062 26.2363 17.9088 22.2028C17.8738 21.4851 16.8885 19.4982 16.205 18.638C16.5147 18.2508 16.845 17.8764 17.1955 17.5162ZM26.799 30.5799C26.7178 30.7072 26.6381 30.8322 26.5616 30.954C26.4654 30.7982 26.365 30.6387 26.2622 30.4756C25.0085 28.486 24.1355 26.8781 25.2167 25.7969C25.5733 25.4402 26.0499 25.2439 26.5587 25.2439C27.0675 25.2439 27.5441 25.4403 27.9006 25.7969C29.0008 26.8969 28.0526 28.6138 26.799 30.5799ZM22.0845 41.181C22.3693 41.3254 22.6179 41.4523 22.6082 42.227C20.7172 41.4931 19.0087 40.3906 17.5712 39.0079C17.6971 38.9759 17.8304 38.9401 17.9721 38.902C18.7497 38.6928 19.7179 38.4325 20.4352 38.5475C20.9214 38.6255 21.4722 38.884 21.4158 40.2017C21.3891 40.828 21.8244 41.0489 22.0845 41.181ZM23.5081 42.544C23.5083 42.529 23.509 42.5113 23.5104 42.4887C23.598 41.0512 23.0332 40.6404 22.497 40.3683C22.4375 40.3381 22.3583 40.2979 22.3268 40.2729C22.3262 40.266 22.3257 40.2554 22.3264 40.2406C22.4076 38.3422 21.4214 37.7827 20.5798 37.6477C19.6694 37.5016 18.597 37.7901 17.7354 38.022C17.3818 38.1171 17.017 38.2152 16.8207 38.2332C14.3922 35.5427 12.9114 31.9812 12.9114 28.08C12.9114 24.9117 13.8659 21.9116 15.6418 19.3868C16.1524 20.1199 16.9735 21.7371 16.9985 22.2474C17.097 24.2619 17.5329 25.6908 18.331 26.6156C19.0244 27.4192 19.8236 27.6287 20.3011 27.7538C20.404 27.7808 20.5013 27.8063 20.5581 27.8284C21.5118 28.2001 22.4386 29.9959 23.1832 31.4387C23.6657 32.3738 24.0825 33.1814 24.5077 33.6741C24.8293 34.0469 25.3677 34.6709 26.1234 35.0475C26.5585 35.2644 27.0064 35.3728 27.4647 35.3728C28.0012 35.3728 28.5518 35.2241 29.112 34.9272C29.7843 34.5707 30.1739 34.0661 30.2701 33.4275C30.4603 32.1651 29.4202 30.7319 28.4162 29.6752C28.6801 29.1992 28.9156 28.7071 29.0771 28.2105C29.251 27.6753 29.3182 27.183 29.2813 26.7346C30.0214 26.648 30.7797 26.6109 31.3607 26.5826C31.9292 26.5549 32.2344 26.5386 32.4188 26.4994C33.1881 26.3357 33.7091 25.9322 33.8482 25.3926C33.9241 25.0981 33.9443 24.511 33.2258 23.8883C32.8304 23.5456 32.332 23.1942 31.85 22.8544C31.1127 22.3346 30.2771 21.7453 30.0603 21.3326C29.7945 20.8265 29.8355 20.6388 29.8543 20.5933C29.8937 20.4984 30.0722 20.4012 30.3846 20.3046C30.5355 20.2579 30.7059 20.2141 30.8863 20.1677C31.7701 19.9405 32.9807 19.6293 33.6283 18.4664C34.1929 17.4526 34.2184 15.9835 33.7027 13.9924C38.3783 15.8652 41.9123 20.0007 42.9419 25.0376C41.2196 25.0219 40.1089 25.3109 39.4707 25.9348C38.9132 26.4798 38.7813 27.1903 38.7424 27.9492C38.2471 28.0635 37.7768 28.3126 37.3916 28.6978C36.3661 29.7233 36.5248 31.0105 37.0536 32.2538C37.0228 32.2737 36.9916 32.2934 36.9601 32.3129C35.69 33.0959 36.1198 34.3384 36.4991 35.4347C36.8338 36.4023 37.2132 37.4992 36.7743 38.6323C36.5716 39.1556 36.4232 39.7208 36.9148 40.4027C34.4252 42.1928 31.3737 43.2486 28.08 43.2486C26.4874 43.2486 24.9515 43.0012 23.5081 42.544ZM38.0362 29.3424C38.4062 28.9723 38.8921 28.7874 39.3781 28.7874C39.8642 28.7874 40.3502 28.9724 40.7201 29.3424C41.8201 30.4423 40.872 32.1593 39.6184 34.1254C39.5372 34.2527 39.4575 34.3776 39.3811 34.4994C39.2848 34.3436 39.1844 34.1841 39.0815 34.021C37.8279 32.0314 36.9549 30.4235 38.0362 29.3424ZM37.638 39.849C37.4194 39.537 37.4824 39.3275 37.6242 38.9616C38.1838 37.517 37.7273 36.1972 37.3604 35.1367C36.938 33.9156 36.8433 33.4557 37.4384 33.0888C37.444 33.0853 37.4494 33.0817 37.4551 33.0782C37.7272 33.5812 38.0318 34.0648 38.3104 34.5069C38.5595 34.9023 38.7949 35.2759 38.9783 35.6114C39.0583 35.7575 39.2115 35.8485 39.3782 35.8485C39.5448 35.8485 39.6981 35.7576 39.778 35.6114C39.9351 35.324 40.1546 34.9798 40.387 34.6154C40.9416 33.7457 41.5701 32.7599 41.8966 31.7559C42.3078 30.491 42.1289 29.4622 41.3647 28.6979C40.8882 28.2213 40.2816 27.9524 39.6582 27.8905C39.6926 27.3452 39.7881 26.8993 40.108 26.5866C40.5775 26.1276 41.5582 25.9192 43.0986 25.9515C43.1967 26.6472 43.2486 27.3576 43.2486 28.08C43.2486 32.8239 41.059 37.0654 37.638 39.849ZM20.5655 15.3795C20.5655 14.693 20.007 14.1345 19.3206 14.1345C18.6341 14.1345 18.0756 14.693 18.0756 15.3795C18.0756 16.0659 18.6341 16.6244 19.3206 16.6244C20.007 16.6244 20.5655 16.0659 20.5655 15.3795ZM18.9871 15.3795C18.9871 15.1956 19.1367 15.046 19.3206 15.046C19.5045 15.046 19.6541 15.1956 19.6541 15.3795C19.6541 15.5634 19.5045 15.713 19.3206 15.713C19.1367 15.713 18.9871 15.5634 18.9871 15.3795ZM40.619 30.5423C40.619 29.8559 40.0606 29.2974 39.3741 29.2974C38.6877 29.2974 38.1292 29.8559 38.1292 30.5423C38.1292 31.2288 38.6877 31.7873 39.3741 31.7873C40.0606 31.7873 40.619 31.2288 40.619 30.5423ZM39.0406 30.5423C39.0406 30.3584 39.1902 30.2088 39.3741 30.2088C39.558 30.2088 39.7076 30.3584 39.7076 30.5423C39.7076 30.7262 39.558 30.8758 39.3741 30.8758C39.1902 30.8758 39.0406 30.7262 39.0406 30.5423ZM26.5547 25.752C25.8683 25.752 25.3098 26.3105 25.3098 26.9969C25.3098 27.6833 25.8683 28.2418 26.5547 28.2418C27.2412 28.2418 27.7997 27.6833 27.7997 26.9969C27.7997 26.3105 27.2412 25.752 26.5547 25.752ZM26.5547 27.3304C26.3708 27.3304 26.2212 27.1808 26.2212 26.9969C26.2212 26.8131 26.3708 26.6635 26.5547 26.6635C26.7387 26.6635 26.8883 26.8131 26.8883 26.9969C26.8883 27.1808 26.7387 27.3304 26.5547 27.3304Z" fill="white"/>
</svg>
