<svg width="56" height="56" viewBox="0 0 56 56" fill="none" xmlns="http://www.w3.org/2000/svg">
<rect width="56" height="56" rx="28" fill="black"/>
<path d="M14.6371 27.9996C14.666 27.9996 14.6949 27.9977 14.7236 27.9939C19.3982 27.3596 23.9573 26.0569 28.2613 24.1256C32.6077 22.17 36.6459 19.5916 40.2488 16.4716L39.4737 19.5731C39.4329 19.7367 39.4587 19.9099 39.5454 20.0545C39.6322 20.1991 39.7728 20.3034 39.9363 20.3444C39.9869 20.3569 40.0388 20.3633 40.091 20.3635C40.2328 20.3633 40.3705 20.3157 40.4822 20.2283C40.5939 20.1409 40.6733 20.0187 40.7076 19.8811L41.9803 14.7903C42.0037 14.6966 42.0054 14.5988 41.9853 14.5043C41.9653 14.4098 41.924 14.3211 41.8646 14.2449C41.8051 14.1687 41.7291 14.1071 41.6424 14.0647C41.5556 14.0222 41.4603 14.0001 41.3637 14H36.2729C36.1041 14 35.9422 14.067 35.8229 14.1864C35.7036 14.3057 35.6365 14.4676 35.6365 14.6363C35.6365 14.8051 35.7036 14.967 35.8229 15.0863C35.9422 15.2057 36.1041 15.2727 36.2729 15.2727H39.6894C36.1112 18.4172 32.0834 21.0099 27.7395 22.9649C23.5466 24.8462 19.1051 26.1151 14.5512 26.7327C14.3912 26.7543 14.2454 26.8359 14.1433 26.961C14.0412 27.0861 13.9905 27.2453 14.0015 27.4063C14.0124 27.5674 14.0841 27.7183 14.2021 27.8285C14.3202 27.9386 14.4756 27.9998 14.6371 27.9996Z" fill="white"/>
<path d="M41.3639 40.7259H40.7276V23.5446C40.7276 23.3758 40.6605 23.2139 40.5412 23.0946C40.4218 22.9752 40.26 22.9082 40.0912 22.9082H33.7277C33.559 22.9082 33.3971 22.9752 33.2778 23.0946C33.1584 23.2139 33.0914 23.3758 33.0914 23.5446V40.7259H31.8187V27.3626C31.8187 27.1939 31.7517 27.032 31.6323 26.9127C31.513 26.7933 31.3511 26.7263 31.1823 26.7263H24.8189C24.6501 26.7263 24.4882 26.7933 24.3689 26.9127C24.2496 27.032 24.1825 27.1939 24.1825 27.3626V40.7259H22.9098V31.1807C22.9098 31.0119 22.8428 30.8501 22.7235 30.7307C22.6041 30.6114 22.4423 30.5444 22.2735 30.5444H15.91C15.7412 30.5444 15.5794 30.6114 15.4601 30.7307C15.3407 30.8501 15.2737 31.0119 15.2737 31.1807V40.7259H14.6373C14.4686 40.7259 14.3067 40.793 14.1874 40.9123C14.068 41.0316 14.001 41.1935 14.001 41.3623C14.001 41.531 14.068 41.6929 14.1874 41.8122C14.3067 41.9316 14.4686 41.9986 14.6373 41.9986H41.3639C41.5327 41.9986 41.6945 41.9316 41.8139 41.8122C41.9332 41.6929 42.0002 41.531 42.0002 41.3623C42.0002 41.1935 41.9332 41.0316 41.8139 40.9123C41.6945 40.793 41.5327 40.7259 41.3639 40.7259ZM34.3641 24.1809H39.4549V40.7259H34.3641V24.1809ZM25.4552 27.999H30.546V40.7259H25.4552V27.999ZM16.5464 31.8171H21.6371V40.7259H16.5464V31.8171Z" fill="white"/>
</svg>
