<svg width="56" height="56" viewBox="0 0 56 56" fill="none" xmlns="http://www.w3.org/2000/svg">
<rect width="56" height="56" rx="28" fill="black"/>
<path fill-rule="evenodd" clip-rule="evenodd" d="M34.64 32.3773C34.6413 32.4 34.6413 32.422 34.6396 32.4447C34.5669 33.4409 33.6796 34.105 32.487 34.2609V34.6414C32.487 34.9176 32.2626 35.142 31.9863 35.142C31.7101 35.142 31.4857 34.9176 31.4857 34.6414V34.2677C30.8379 34.207 30.2137 34.0421 29.6249 33.7743C29.3731 33.6605 29.2618 33.3639 29.3765 33.1117C29.4908 32.8599 29.7877 32.7486 30.0395 32.8633C30.868 33.24 32.1043 33.48 32.9944 33.099C33.5136 32.8738 33.6165 32.6022 33.6376 32.4069C33.6182 32.2179 33.517 31.954 32.991 31.7174C32.2668 31.4053 31.5097 31.6497 30.6055 31.2467C29.6076 30.7858 29.3794 30.1283 29.3638 29.6576C29.3633 29.6437 29.3638 29.6297 29.3646 29.6158C29.3899 29.119 29.6282 28.4408 30.6205 28.0282C30.8863 27.9135 31.176 27.8347 31.4856 27.7929V27.4083C31.4856 27.132 31.71 26.9076 31.9862 26.9076C32.2624 26.9076 32.4868 27.132 32.4868 27.4083V27.7849C33.1709 27.8486 33.7825 28.0118 34.3443 28.2788C34.594 28.3973 34.7003 28.6963 34.5818 28.946C34.4632 29.1956 34.1642 29.302 33.9145 29.183C33.3578 28.9186 32.7306 28.7794 31.9976 28.7579C31.3992 28.7491 30.3721 29.0386 30.3658 29.6462C30.3717 29.7655 30.4185 30.0549 31.0179 30.3345C31.3717 30.4813 31.6767 30.5015 32.0296 30.5247C32.4194 30.5508 32.8618 30.5799 33.3806 30.795C33.3843 30.7971 33.3894 30.7988 33.3932 30.8009C34.3697 31.2372 34.6101 31.8994 34.64 32.3773ZM43.9815 42.1164L43.0785 43.019C43.0544 43.0428 43.0144 43.0436 42.9895 43.019L39.8203 39.8508C39.797 39.8276 39.797 39.7837 39.8203 39.7618L40.7233 38.8588C40.7469 38.8343 40.7883 38.8349 40.8123 38.8588L43.9815 42.0279C44.0048 42.0511 44.0046 42.0927 43.9815 42.1164ZM26.8164 36.1944C29.673 39.0517 34.2996 39.0511 37.156 36.1942C40.0066 33.3434 40.0065 28.7057 37.1558 25.855C34.2995 22.9984 29.6727 22.9984 26.8162 25.8553C23.9597 28.7122 23.9594 33.3375 26.8164 36.1944ZM28.7388 19.7359L28.7389 23.3689C27.9072 23.722 27.1333 24.2125 26.4454 24.8287L26.4452 19.7359H28.7388ZM33.1672 11.9997L35.4607 11.9997L35.461 23.4696C34.7372 23.1364 33.9658 22.9087 33.1674 22.7961L33.1672 11.9997ZM44.6888 41.3197L41.5196 38.1506C41.1049 37.736 40.4301 37.736 40.0152 38.1506L39.9177 38.248L38.207 36.5373C41.5822 32.7329 40.7685 26.7796 36.4623 24.0177L36.462 11.5019C36.462 11.2235 36.238 11 35.9614 11L32.6665 11.0001C32.3903 11.0001 32.1663 11.2236 32.1663 11.502L32.1666 22.7146C31.3355 22.6971 30.5231 22.7997 29.7403 23.0183L29.7402 19.235C29.7402 18.9579 29.5167 18.7344 29.2396 18.7344L25.9452 18.7345C25.6681 18.7345 25.4445 18.958 25.4445 19.2351L25.4447 25.8948C24.2966 27.3528 23.6738 29.1407 23.6738 31.0251C23.674 35.619 27.3923 39.3368 31.9866 39.3366C34.0388 39.3365 35.9777 38.5976 37.499 37.2453L39.2097 38.9559L39.1122 39.0534C38.6977 39.4679 38.6974 40.1429 39.1123 40.5578L42.2815 43.7269C42.697 44.1418 43.3718 44.1412 43.7868 43.7268L44.6889 42.8238C45.1042 42.4094 45.1032 41.7315 44.6888 41.3197ZM35.9109 34.9496C38.0809 32.7803 38.0798 29.2687 35.9107 27.0997C33.7426 24.9317 30.2291 24.9315 28.0608 27.0999C25.9021 29.2587 25.9024 32.7914 28.061 34.9498C30.2298 37.1185 33.7428 37.1195 35.9109 34.9496ZM36.6192 26.392C34.0595 23.8324 29.913 23.8326 27.3535 26.3922C26.1645 27.5811 25.5294 29.1173 25.4472 30.677H25.4447V30.7335C25.4359 30.9279 25.4359 31.1228 25.4447 31.3172V31.3737H25.4472C25.6292 34.8251 28.4703 37.5769 31.9863 37.5769C35.6071 37.5768 38.5379 34.6458 38.5379 31.025C38.5379 29.2751 37.8567 27.6294 36.6192 26.392ZM15.2955 35.1644L13.0015 35.1644L13.0013 26.1037L15.2953 26.1036L15.2955 35.1644ZM15.7959 25.1023L12.5006 25.1023C12.2244 25.1023 12 25.3267 12 25.603L12.0002 35.665C12.0002 35.9412 12.2246 36.1656 12.5009 36.1656L15.7961 36.1656C16.0724 36.1656 16.2967 35.9412 16.2967 35.6649L16.2965 25.6029C16.2965 25.3266 16.0721 25.1023 15.7959 25.1023ZM22.0171 35.1641L19.7231 35.1642L19.7227 16.9327L22.0167 16.9326L22.0171 35.1641ZM22.5177 15.9317L19.2224 15.9317C18.9458 15.9317 18.7218 16.1553 18.7218 16.4319L18.7222 35.6648C18.7222 35.941 18.9462 36.1654 19.2229 36.1654L22.5181 36.1653C22.7944 36.1653 23.0183 35.9409 23.0183 35.6647L23.0179 16.4319C23.018 16.1552 22.794 15.9317 22.5177 15.9317Z" fill="white"/>
</svg>
