<svg width="56" height="56" viewBox="0 0 56 56" fill="none" xmlns="http://www.w3.org/2000/svg">
<rect width="56" height="56" rx="28" fill="black"/>
<path d="M24.0609 21.7462C22.1775 22.9636 21.0233 25.038 20.9814 27.28C20.9814 27.5902 21.2328 27.8415 21.5427 27.8415C21.8529 27.8415 22.1042 27.5902 22.1042 27.28C22.1428 25.4309 23.0916 23.7199 24.6397 22.7081C24.9003 22.546 24.9822 22.2047 24.8242 21.9418C24.6659 21.6792 24.3259 21.5918 24.0609 21.7462Z" fill="white"/>
<path d="M41.1929 25.0349C39.8597 25.0367 38.7109 25.9747 38.4426 27.2805H31.5923C31.4625 26.6658 31.1295 26.1127 30.6469 25.7103L32.5437 22.2281H34.5127C34.8011 23.64 36.1115 24.6042 37.5452 24.4593C38.979 24.3146 40.0701 23.1075 40.0701 21.6666C40.0701 20.2256 38.979 19.0186 37.5452 18.8739C36.1115 18.7289 34.8011 19.6934 34.5127 21.1053H32.7719V17.4078L34.6885 15.4911H37.3198C37.6079 16.903 38.9186 17.8675 40.3523 17.7226C41.786 17.5779 42.8772 16.3708 42.8772 14.9299C42.8772 13.4887 41.786 12.2819 40.3523 12.1369C38.9186 11.9922 37.6079 12.9565 37.3198 14.3684H34.6885C34.3909 14.3691 34.1057 14.4873 33.8947 14.6973L33.4133 15.1789C33.0189 15.0329 32.6174 14.9067 32.2104 14.8011V12.1228C32.2096 11.5029 31.7075 11.0008 31.0876 11H26.5965C25.9766 11.0008 25.4744 11.5029 25.4737 12.1228V14.8006C24.2532 15.1118 23.0832 15.5952 21.9989 16.2356L20.1157 14.3522C19.9057 14.1358 19.6166 14.014 19.3149 14.0147H19.3139C19.015 14.0135 18.7282 14.1335 18.5196 14.3475L15.3524 17.5142C15.1373 17.7239 15.0158 18.0112 15.0147 18.3113C15.014 18.6118 15.1337 18.8998 15.3475 19.1108L17.2351 20.9987C16.5947 22.0832 16.1116 23.2532 15.7998 24.4737H13.1228C12.5029 24.4744 12.0008 24.9766 12 25.5965V30.0876C12.0008 30.7075 12.5029 31.2096 13.1228 31.2104H15.7998C16.1116 32.4308 16.5947 33.6009 17.2351 34.6854L15.3524 36.5681C15.1373 36.7778 15.0158 37.0651 15.0147 37.3653C15.014 37.6657 15.1337 37.9538 15.3475 38.1645L18.5147 41.3314C18.7241 41.548 19.0127 41.6701 19.3142 41.6693H19.3152C19.6146 41.6706 19.9014 41.5506 20.1108 41.3365L21.9989 39.4487C23.0832 40.0891 24.2532 40.5725 25.4737 40.8837V43.5613C25.4744 44.1811 25.9766 44.6833 26.5965 44.684H31.0876C31.7075 44.6833 32.2096 44.1811 32.2104 43.5613V40.8829C32.6174 40.7773 33.0189 40.6511 33.4133 40.5052L33.8947 40.9867C34.1057 41.1967 34.3909 41.3149 34.6885 41.3157H37.3198C37.6079 42.7276 38.9186 43.6918 40.3523 43.5471C41.786 43.4022 42.8772 42.1954 42.8772 40.7542C42.8772 39.3132 41.786 38.1062 40.3523 37.9615C38.9186 37.8165 37.6079 38.781 37.3198 40.1929H34.6885L32.7719 38.2763V34.5787H34.5127C34.8011 35.9906 36.1115 36.9551 37.5452 36.8102C38.979 36.6655 40.0701 35.4584 40.0701 34.0175C40.0701 32.5765 38.979 31.3695 37.5452 31.2248C36.1115 31.0798 34.8011 32.044 34.5127 33.4559H32.5437L30.6469 29.9737C31.1295 29.5713 31.4625 29.0183 31.5923 28.4035H38.4426C38.7382 29.8506 40.1046 30.8216 41.5686 30.6237C43.0324 30.426 44.0928 29.1275 43.9936 27.6537C43.8944 26.1798 42.6701 25.0349 41.1929 25.0349ZM40.0701 13.2456C41.0002 13.2456 41.7542 13.9996 41.7542 14.9299C41.7542 15.8599 41.0002 16.6139 40.0701 16.6139C39.1398 16.6139 38.3858 15.8599 38.3858 14.9299C38.3868 14.0001 39.1403 13.2466 40.0701 13.2456ZM40.0701 39.0701C41.0002 39.0701 41.7542 39.8241 41.7542 40.7542C41.7542 41.6845 41.0002 42.4385 40.0701 42.4385C39.1398 42.4385 38.3858 41.6845 38.3858 40.7542C38.3868 39.8244 39.1403 39.0712 40.0701 39.0701ZM28.842 29.5263C27.912 29.5263 27.1577 28.7721 27.1577 27.842C27.1577 26.912 27.912 26.1577 28.842 26.1577C29.7721 26.1577 30.5263 26.912 30.5263 27.842C30.5253 28.7718 29.7718 29.5253 28.842 29.5263ZM37.263 19.9825C38.1931 19.9825 38.9473 20.7365 38.9473 21.6666C38.9473 22.5969 38.1931 23.3509 37.263 23.3509C36.333 23.3509 35.5787 22.5969 35.5787 21.6666C35.5798 20.7368 36.3333 19.9836 37.263 19.9825ZM31.5273 39.892C31.2703 39.9488 31.0876 40.1767 31.0876 40.4399V43.5613H26.5965V40.4399C26.5965 40.1759 26.4127 39.9477 26.1552 39.8915C24.7564 39.5849 23.4229 39.0344 22.2153 38.265C21.9933 38.1247 21.7036 38.1565 21.5176 38.3421L19.3136 40.5427L16.1416 37.3673L18.3422 35.1667C18.5283 34.9807 18.5602 34.6905 18.4191 34.4687C17.6499 33.2611 17.0992 31.9274 16.7923 30.5291C16.736 30.2713 16.5078 30.0879 16.2442 30.0876H13.1228V25.5965H16.2442C16.5078 25.5965 16.736 25.4127 16.7923 25.1552C17.0992 23.7567 17.6499 22.4229 18.4191 21.2153C18.5602 20.9935 18.5283 20.7034 18.3422 20.5176L16.1416 18.3134L19.317 15.1414L21.5176 17.342C21.7036 17.528 21.9938 17.5602 22.2156 17.4191C23.4232 16.6496 24.7567 16.0992 26.1552 15.7928C26.413 15.7363 26.5965 15.5078 26.5965 15.2442V12.1228H31.0876V15.2442C31.0876 15.5073 31.2703 15.7353 31.5273 15.7921C31.8745 15.8694 32.2083 15.9607 32.5311 16.0609L31.9781 16.6139C31.7666 16.8241 31.6483 17.1099 31.6491 17.4078V18.1353C27.5208 16.9403 23.0886 18.4869 20.6001 21.9909C18.1115 25.4947 18.1115 30.1894 20.6001 33.6931C23.0886 37.1972 27.5208 38.7437 31.6491 37.5488V38.2763C31.6483 38.5741 31.7668 38.8599 31.9781 39.0701L32.5311 39.6229C32.2083 39.7236 31.8745 39.8146 31.5273 39.892ZM37.263 32.3332C38.1931 32.3332 38.9473 33.0872 38.9473 34.0175C38.9473 34.9475 38.1931 35.7015 37.263 35.7015C36.333 35.7015 35.5787 34.9475 35.5787 34.0175C35.5798 33.0877 36.3333 32.3342 37.263 32.3332ZM31.6491 34.1604V36.3679C27.9428 37.5968 23.867 36.2908 21.5656 33.1363C19.264 29.982 19.264 25.7021 21.5656 22.5478C23.867 19.3933 27.9428 18.0872 31.6491 19.3162V21.5237L29.6621 25.1714C29.3971 25.085 29.1206 25.039 28.842 25.0349C27.2919 25.0349 26.0349 26.2919 26.0349 27.842C26.0349 29.3922 27.2919 30.6491 28.842 30.6491C29.1206 30.645 29.3971 30.599 29.6621 30.5127L31.6491 34.1604ZM41.1929 29.5263C40.2626 29.5263 39.5086 28.7721 39.5086 27.842C39.5086 26.912 40.2626 26.1577 41.1929 26.1577C42.123 26.1577 42.877 26.912 42.877 27.842C42.8759 28.7718 42.1227 29.5253 41.1929 29.5263Z" fill="white"/>
</svg>
