<svg width="32" height="32" viewBox="0 0 32 32" fill="none" xmlns="http://www.w3.org/2000/svg">
<rect x="0.4" y="31.6" width="31.2" height="31.2" rx="15.6" transform="rotate(-90 0.4 31.6)" stroke="#003C7A" stroke-width="0.8"/>
<path fill-rule="evenodd" clip-rule="evenodd" d="M7.59997 16.1929C7.46717 16.06 7.39258 15.8797 7.39258 15.6918C7.39258 15.5039 7.46717 15.3236 7.59997 15.1907L13.2731 9.5175C13.3381 9.44783 13.4163 9.39194 13.5033 9.35319C13.5903 9.31443 13.6842 9.29359 13.7794 9.29191C13.8747 9.29023 13.9692 9.30774 14.0575 9.34341C14.1458 9.37907 14.2261 9.43216 14.2934 9.4995C14.3607 9.56684 14.4138 9.64705 14.4495 9.73535C14.4852 9.82366 14.5027 9.91823 14.501 10.0135C14.4993 10.1087 14.4785 10.2026 14.4397 10.2896C14.401 10.3765 14.3451 10.4548 14.2754 10.5198L9.8125 14.9827H23.2295C23.4176 14.9827 23.598 15.0574 23.731 15.1904C23.864 15.3233 23.9387 15.5037 23.9387 15.6918C23.9387 15.8799 23.864 16.0602 23.731 16.1932C23.598 16.3262 23.4176 16.4009 23.2295 16.4009H9.8125L14.2754 20.8638C14.3451 20.9288 14.401 21.007 14.4397 21.094C14.4785 21.181 14.4993 21.2749 14.501 21.3701C14.5027 21.4654 14.4852 21.5599 14.4495 21.6482C14.4138 21.7365 14.3607 21.8168 14.2934 21.8841C14.2261 21.9514 14.1458 22.0045 14.0575 22.0402C13.9692 22.0759 13.8747 22.0934 13.7794 22.0917C13.6842 22.09 13.5903 22.0692 13.5033 22.0304C13.4163 21.9916 13.3381 21.9358 13.2731 21.8661L7.59997 16.1929Z" fill="#003C7A"/>
</svg>
