<svg width="266" height="72" viewBox="0 0 266 72" fill="none" xmlns="http://www.w3.org/2000/svg">
<g clip-path="url(#clip0_1268_12441)">
<path d="M259.65 52.4043H260.859V58.0255C260.859 58.5269 261.028 58.9406 261.369 59.2602C261.71 59.5847 262.162 59.7457 262.727 59.7457C263.321 59.7457 263.787 59.5889 264.129 59.276C264.471 58.9632 264.643 58.5352 264.643 57.9996V52.4043H265.846V58.1147C265.846 58.9448 265.57 59.5939 265.011 60.056C264.457 60.5249 263.697 60.756 262.736 60.756C261.749 60.756 260.989 60.5274 260.454 60.0744C259.919 59.6189 259.65 58.9632 259.65 58.1106V52.4043Z" fill="#EC2024"/>
<path d="M256.353 58.8798C255.942 59.4288 255.354 59.7191 254.591 59.7466C254.551 59.7466 254.51 59.7466 254.471 59.7466C253.74 59.7466 253.177 59.4329 252.78 58.8014C252.38 58.169 252.18 57.3832 252.18 56.4396C252.18 55.4636 252.373 54.6877 252.764 54.1196C253.153 53.5523 253.723 53.2678 254.471 53.2678C254.51 53.2678 254.551 53.2678 254.591 53.2703C256.197 53.3204 257.001 54.3765 257.001 56.4405C257.001 57.4875 256.783 58.3009 256.353 58.8798ZM257.288 53.3638C256.655 52.6513 255.757 52.2851 254.591 52.2617H254.471C253.381 52.2617 252.517 52.6605 251.876 53.4597C251.234 54.2623 250.913 55.2525 250.913 56.4405C250.913 57.7044 251.228 58.7413 251.857 59.5456C252.487 60.3539 253.356 60.7569 254.472 60.7569L254.591 60.7544C255.754 60.7327 256.652 60.3514 257.283 59.6131C257.938 58.8481 258.269 57.7886 258.269 56.4405C258.268 55.1257 257.939 54.1004 257.288 53.3638Z" fill="#EC2024"/>
<path d="M189.646 52.4043H188.441V60.6158H189.646V52.4043Z" fill="#EC2024"/>
<path d="M197.376 60.7293L192.811 54.7277V60.6158H191.665V52.4043H192.15L196.592 58.0822V52.4043H197.736V60.7293H197.376Z" fill="#EC2024"/>
<path d="M205.659 52.9758L205.159 53.8994C204.552 53.4814 203.957 53.2695 203.374 53.2695C202.454 53.2695 201.72 53.5748 201.188 54.1805C200.651 54.787 200.386 55.5887 200.386 56.5865C200.386 57.5367 200.646 58.2992 201.172 58.8782C201.696 59.4571 202.411 59.7449 203.313 59.7449C203.956 59.7449 204.475 59.5664 204.875 59.2094V57.2847H203.652V56.332H206.079V59.9076C205.757 60.1629 205.31 60.3673 204.736 60.5216C204.163 60.676 203.604 60.7527 203.059 60.7527C201.844 60.7527 200.881 60.3715 200.178 59.6023C199.472 58.8331 199.118 57.8128 199.118 56.5389C199.118 55.2684 199.505 54.2356 200.279 53.4472C201.053 52.6563 202.099 52.2617 203.411 52.2617C204.331 52.2634 205.082 52.5011 205.659 52.9758Z" fill="#EC2024"/>
<path d="M218.395 60.7273H218.015L215.911 55.0678L213.946 60.7273H213.569L210.784 52.4023H212.036L213.81 58.137L215.751 52.4023H216.17L218.088 58.1261L219.89 52.4023H221.142L218.395 60.7273Z" fill="#EC2024"/>
<path d="M223.539 52.4043H222.336V60.6158H223.539V52.4043Z" fill="#EC2024"/>
<path d="M228.777 53.4129V60.6158H227.571V53.4129H224.764V52.4043H231.713V53.4129H228.777Z" fill="#EC2024"/>
<path d="M237.786 60.6139V56.647H233.928V60.6139H232.722V52.4023H233.928V55.6926H237.786V52.4023H238.991V60.6139H237.786Z" fill="#EC2024"/>
<path d="M247.52 56.939V60.6139H246.316V56.939L243.471 52.4023H244.715L246.912 55.9888L249.111 52.4023H250.355L247.52 56.939Z" fill="#EC2024"/>
<path d="M183.773 56.1078C183.586 56.127 183.382 56.1387 183.158 56.1387C182.884 56.1387 182.602 56.1195 182.313 56.0819V53.4132C182.67 53.3765 182.903 53.359 183.023 53.359C183.3 53.359 183.55 53.3723 183.773 53.399C184.164 53.4449 184.475 53.5333 184.701 53.6601C185.053 53.8628 185.231 54.1949 185.231 54.6537C185.231 55.2118 185.066 55.5972 184.736 55.8133C184.508 55.9618 184.188 56.0603 183.773 56.1078ZM184.766 56.8378C185.238 56.7402 185.642 56.4807 185.983 56.0686C186.325 55.6548 186.496 55.1901 186.496 54.6746C186.496 53.2238 185.587 52.4429 183.773 52.3337C183.625 52.3253 183.473 52.3203 183.315 52.3203C183.047 52.3203 182.628 52.3337 182.045 52.362C181.465 52.3904 181.153 52.4037 181.108 52.4037V60.6153H182.313V57.0363C182.895 57.0705 183.321 57.0897 183.59 57.0897L183.773 57.36L185.946 60.6144H187.326L184.766 56.8378Z" fill="#EC2024"/>
<path d="M176.521 58.0599H175.209L176.521 54.5961L176.578 54.4459L177.829 58.0599H176.521ZM176.792 52.291H176.475L172.889 60.616H174.238L174.888 58.8866H178.171L178.78 60.616H180.119L176.792 52.291Z" fill="#EC2024"/>
<path d="M150.016 53.1007V52.2598C150.816 52.2681 151.435 52.4358 151.874 52.767L151.374 53.6313C150.917 53.2742 150.504 53.0974 150.145 53.0974C150.102 53.0982 150.056 53.0982 150.016 53.1007Z" fill="#EC2024"/>
<path d="M159.358 60.2424L159.799 59.2105C160.024 59.3631 160.305 59.4916 160.64 59.5934C160.975 59.696 161.275 59.7461 161.54 59.7461C162.009 59.7461 162.388 59.6259 162.672 59.3865C162.957 59.1496 163.099 58.8442 163.099 58.4738C163.099 58.1969 163.022 57.9416 162.864 57.7022C162.706 57.4669 162.305 57.2099 161.666 56.9263L160.954 56.6168C160.354 56.3557 159.932 56.0462 159.696 55.6891C159.454 55.327 159.332 54.8982 159.332 54.3944C159.332 53.7803 159.569 53.2698 160.032 52.8693C160.501 52.4647 161.099 52.2637 161.827 52.2637C162.806 52.2637 163.483 52.4122 163.867 52.7075L163.511 53.6819C163.351 53.5726 163.105 53.47 162.774 53.3699C162.445 53.2656 162.139 53.2172 161.859 53.2172C161.45 53.2172 161.126 53.3223 160.892 53.5401C160.655 53.7587 160.537 54.0373 160.537 54.3768C160.537 54.5862 160.581 54.7773 160.665 54.9483C160.75 55.1201 160.865 55.2636 161.017 55.3796C161.168 55.4956 161.477 55.6582 161.943 55.8701L162.667 56.188C163.269 56.4516 163.69 56.7695 163.933 57.1365C164.177 57.5061 164.298 57.9733 164.298 58.5422C164.298 59.1579 164.033 59.6835 163.498 60.1106C162.965 60.5403 162.256 60.7555 161.364 60.7555C160.582 60.7547 159.915 60.582 159.358 60.2424Z" fill="#EC2024"/>
<path d="M170.755 60.6139V56.647H166.898V60.6139H165.692V52.4023H166.898V55.6926H170.755V52.4023H171.96V60.6139H170.755Z" fill="#EC2024"/>
<path d="M150.322 59.7764C150.213 59.7764 150.111 59.7714 150.015 59.763C148.994 59.6696 148.481 59.0914 148.481 58.0244C148.481 57.5247 148.672 57.0484 149.053 56.5904H151.483V58.8562C151.483 59.114 151.504 59.3267 151.548 59.4994C151.276 59.6854 150.865 59.7764 150.322 59.7764ZM154.388 59.567C154.093 59.7021 153.838 59.7764 153.621 59.7764C153.257 59.7764 152.999 59.6829 152.851 59.4927C152.702 59.305 152.627 58.9563 152.627 58.4382V56.5904H154.13V55.6927H152.627V54.2428L151.482 54.6524V55.6785H149.241C148.776 55.3406 148.541 54.931 148.541 54.4447C148.541 53.5846 149.033 53.1357 150.015 53.1007V52.2598H149.959C149.179 52.2598 148.557 52.4617 148.095 52.8679C147.629 53.27 147.397 53.7606 147.397 54.3345C147.397 54.896 147.68 55.4408 148.247 55.9638C147.877 56.3034 147.62 56.6329 147.484 56.9491C147.346 57.2669 147.277 57.6415 147.277 58.0778C147.277 58.9213 147.505 59.577 147.964 60.0366C148.422 60.4963 149.07 60.7291 149.909 60.7291L150.015 60.7274C150.796 60.7182 151.461 60.5831 152.019 60.3303C152.37 60.5956 152.73 60.7291 153.104 60.7291C153.647 60.7291 154.13 60.6707 154.549 60.5597L154.388 59.567Z" fill="#EC2024"/>
<path d="M120.216 60.7273H119.838L117.732 55.0678L115.769 60.7273H115.392L112.605 52.4023H113.859L115.63 58.137L117.571 52.4023H117.993L119.91 58.1261L121.711 52.4023H122.965L120.216 60.7273Z" fill="#EC2024"/>
<path d="M125.363 52.4043H124.157V60.6158H125.363V52.4043Z" fill="#EC2024"/>
<path d="M133.089 60.7273L128.527 54.7257V60.6139H127.382V52.4023H127.864L132.304 58.0803V52.4023H133.452V60.7273H133.089Z" fill="#EC2024"/>
<path d="M141.376 52.9758L140.873 53.8994C140.267 53.4814 139.672 53.2695 139.092 53.2695C138.168 53.2695 137.437 53.5748 136.902 54.1805C136.368 54.787 136.102 55.5887 136.102 56.5865C136.102 57.5367 136.363 58.2992 136.887 58.8782C137.413 59.4571 138.125 59.7449 139.03 59.7449C139.672 59.7449 140.192 59.5664 140.59 59.2094V57.2847H139.369V56.332H141.796V59.9076C141.474 60.1629 141.025 60.3673 140.453 60.5216C139.878 60.6768 139.319 60.7527 138.775 60.7527C137.56 60.7527 136.598 60.3715 135.894 59.6023C135.186 58.8331 134.835 57.8128 134.835 56.5389C134.835 55.2684 135.22 54.2356 135.994 53.4472C136.768 52.6563 137.813 52.2617 139.126 52.2617C140.048 52.2634 140.796 52.5011 141.376 52.9758Z" fill="#EC2024"/>
<path d="M110.132 58.8798C109.721 59.4288 109.133 59.7191 108.37 59.7466C108.331 59.7466 108.289 59.7466 108.25 59.7466C107.519 59.7466 106.957 59.4329 106.559 58.8014C106.159 58.169 105.959 57.3832 105.959 56.4396C105.959 55.4636 106.152 54.6877 106.544 54.1196C106.932 53.5523 107.503 53.2678 108.25 53.2678C108.289 53.2678 108.33 53.2678 108.37 53.2703C109.976 53.3204 110.778 54.3765 110.778 56.4405C110.778 57.4875 110.565 58.3009 110.132 58.8798ZM111.067 53.3638C110.434 52.6513 109.537 52.2851 108.37 52.2617H108.25C107.161 52.2617 106.293 52.6605 105.654 53.4597C105.011 54.2623 104.691 55.2525 104.691 56.4405C104.691 57.7044 105.006 58.7413 105.634 59.5456C106.264 60.3539 107.136 60.7569 108.249 60.7569L108.369 60.7544C109.533 60.7327 110.429 60.3514 111.061 59.6131C111.715 58.8481 112.045 57.7886 112.045 56.4405C112.047 55.1257 111.719 54.1004 111.067 53.3638Z" fill="#EC2024"/>
<path d="M95.7013 52.9758L95.2012 53.8994C94.5945 53.4814 94.0011 53.2695 93.4186 53.2695C92.4949 53.2695 91.7626 53.5748 91.2283 54.1805C90.6957 54.787 90.4286 55.5887 90.4286 56.5865C90.4286 57.5367 90.6915 58.2992 91.215 58.8782C91.7384 59.4571 92.4541 59.7449 93.3562 59.7449C94.0011 59.7449 94.5204 59.5664 94.9182 59.2094V57.2847H93.6974V56.332H96.1224V59.9076C95.8028 60.1629 95.3535 60.3673 94.7792 60.5216C94.205 60.676 93.6466 60.7527 93.1032 60.7527C91.8882 60.7527 90.9237 60.3715 90.2213 59.6023C89.5148 58.8331 89.1611 57.8128 89.1611 56.5389C89.1611 55.2684 89.5481 54.2356 90.322 53.4472C91.096 52.6563 92.1412 52.2617 93.4536 52.2617C94.3731 52.2634 95.1229 52.5011 95.7013 52.9758Z" fill="#EC2024"/>
<path d="M100.656 56.1078C100.469 56.127 100.265 56.1387 100.041 56.1387C99.7671 56.1387 99.4867 56.1195 99.1979 56.0819V53.4132C99.5516 53.3765 99.7887 53.359 99.9061 53.359C100.182 53.359 100.435 53.3723 100.656 53.399C101.05 53.4449 101.357 53.5333 101.584 53.6601C101.938 53.8628 102.116 54.1949 102.116 54.6537C102.116 55.2118 101.949 55.5972 101.619 55.8133C101.392 55.9618 101.071 56.0603 100.656 56.1078ZM101.651 56.8378C102.121 56.7402 102.525 56.4807 102.868 56.0686C103.209 55.6548 103.379 55.1901 103.379 54.6746C103.379 53.2238 102.471 52.4429 100.656 52.3337C100.51 52.3253 100.356 52.3203 100.197 52.3203C99.9319 52.3203 99.5108 52.3337 98.9283 52.362C98.3474 52.3904 98.0345 52.4037 97.9912 52.4037V60.6153H99.1979V57.0363C99.7804 57.0705 100.206 57.0897 100.476 57.0897L100.657 57.36L102.83 60.6144H104.212L101.651 56.8378Z" fill="#EC2024"/>
<path fill-rule="evenodd" clip-rule="evenodd" d="M245.914 36.0231L242.191 36.2525L243.416 33.4895L244.382 31.4147L245.168 29.7112L245.914 28.1436L245.958 28.0518L249.637 35.792L245.914 36.0231ZM262.47 39.6846L260.279 36.1691L256.073 29.3349L250.773 20.7889L248.058 16.404L246.307 13.5859H245.868L244.249 16.3039L242.89 18.654L241.665 20.7738L240.569 22.7544L238.993 25.4723L237.197 28.6992L235.708 31.3246L234.175 34.0434L233.123 35.8396L232.028 37.7742L228.175 44.5483L236.54 49.4762L237.24 47.8661L238.031 46.0683L238.731 44.5483L239.387 43.1184L252.658 42.2908L256.557 49.4762L265.229 44.0711L262.47 39.6846Z" fill="white"/>
<path fill-rule="evenodd" clip-rule="evenodd" d="M128.955 20.5874C130.211 19.2367 132.109 17.9536 134.649 16.7406C137.19 15.5268 140.299 14.7368 143.979 14.3672L145.205 22.1082C144.153 22.1082 143.336 22.1324 142.752 22.1774C142.169 22.2233 141.562 22.2942 140.934 22.3843C140.306 22.4769 139.817 22.577 139.467 22.6838C139.117 22.7915 138.693 22.9541 138.198 23.1685C137.382 23.599 136.97 24.213 136.97 25.0106C136.97 25.4419 137.203 25.8098 137.669 26.1176C138.081 26.4863 138.883 26.9769 140.079 27.5926L140.956 28.0522L141.701 28.5127L142.358 28.8823C145.629 30.7243 147.264 32.9977 147.264 35.7006L147.22 36.3931L147.174 37.083C146.942 38.5563 146.351 39.9328 145.403 41.2075C144.453 42.4814 143.162 43.6586 141.526 44.7331C139.891 45.8068 138.007 46.6827 135.875 47.3576C134.884 47.6955 133.788 47.9875 132.591 48.2344C131.393 48.478 130.182 48.6632 128.955 48.7875L127.729 40.9523C130.065 40.9523 132.13 40.6686 133.927 40.1005C135.722 39.5315 136.62 38.7265 136.62 37.682C136.62 37.2523 136.395 36.8452 135.942 36.4615C135.488 36.0786 135.073 35.7632 134.693 35.5171C134.547 35.3953 134.154 35.1492 133.51 34.7796L131.013 33.2129C127.918 31.1857 126.566 28.8982 126.566 26.3479C126.566 25.3034 126.649 24.2289 127.203 23.1218C127.614 22.2308 128.197 21.3874 128.955 20.5874Z" fill="white"/>
<path fill-rule="evenodd" clip-rule="evenodd" d="M149.904 15.1973H160.241L160.109 18.3299L160.064 21.9238V27.6368L171.454 26.7158L171.41 22.9833V19.0215L171.277 15.1973H181.44L181.394 17.086L181.35 20.0351V22.7064L181.307 25.3785L181.263 28.2817V32.2902L181.307 34.7329L181.35 36.4373L181.394 41.4136L181.44 47.9566H171.277L171.364 41.2743L171.453 34.5485L160.064 35.4687V39.479L160.108 42.7517L160.24 47.9566H150.033L150.077 40.4467L150.121 32.8425C150.121 30.9079 150.084 27.8362 150.012 23.629C149.941 19.4219 149.904 16.6088 149.904 15.1973Z" fill="white"/>
<path fill-rule="evenodd" clip-rule="evenodd" d="M184.482 15.1973H194.688L194.555 21.7862L194.425 30.4941L194.555 40.3065L194.688 47.9566H184.482L184.569 33.2121L184.482 15.1973Z" fill="white"/>
<path d="M207.896 32.8437L207.809 35.1946L207.939 39.939L208.029 42.1506L208.115 44.4556L208.159 48.4166H197.955L197.997 43.5346V40.2159L198.042 38.2813L198.085 35.1011L198.129 32.6134L198.175 27.3618L198.129 20.2198L197.955 14.7371H208.159L208.029 20.1272L207.939 25.564L207.896 27.1774V29.8495H208.072L208.598 29.1579L209.341 28.1443L209.998 27.2216L211.313 25.4714L212.757 23.5826L214.159 21.7865L215.342 20.1731L216.217 19.0226L217.226 17.7312L218.538 16.0268L219.723 14.4609L226.991 21.2342L217.75 31.2327L219.154 32.7969L220.029 33.7663L222.085 36.0697L224.673 38.9721L227.386 42.0129L219.634 49.1099L217.839 46.5737L215.692 43.6722L214.336 41.7852L213.372 40.447L212.583 39.2949L211.488 37.7732L208.072 32.8437H207.896Z" fill="white"/>
<path fill-rule="evenodd" clip-rule="evenodd" d="M106.595 36.0231L102.872 36.2525L104.098 33.4895L105.06 31.4147L105.849 29.7112L106.638 28.0518L110.317 35.792L106.595 36.0231ZM123.149 39.6846L120.96 36.1691L116.757 29.3349L111.456 20.7889L108.739 16.404L106.989 13.5859H106.55L104.929 16.3039L103.572 18.654L102.344 20.7738L101.249 22.7544L99.6728 25.4723L97.8753 28.6992L96.3865 31.3246L94.8544 34.0434L93.8025 35.8396L92.7091 37.7742L88.8535 44.5483L97.2187 49.4762L97.9202 47.8661L98.7066 46.0683L99.409 44.5483L100.066 43.1184L113.338 42.2908L117.235 49.4762L125.907 44.0711L123.149 39.6846Z" fill="white"/>
<path d="M41.3739 0L45.9643 7.27467L13.4224 64.2557L82.896 64.2648L88.0423 71.9725L0 72L41.3739 0Z" fill="white"/>
<path fill-rule="evenodd" clip-rule="evenodd" d="M71.4132 61.0234L71.3026 54.6481H71.8027L73.6785 57.4604L76.0519 61.0234H71.4132ZM64.0584 61.0234H62.1002L61.9895 54.6481H70.1983L70.3064 61.0234H64.0584ZM61.8697 47.6454H67.1333L70.1541 52.1804L70.1783 53.5244H61.9696L61.8697 47.6454ZM61.7374 39.9244H61.9845L66.3818 46.5192H61.8506L61.7374 39.9244ZM54.261 61.0234H52.7789L52.6682 54.6481H60.8686L60.9776 61.0234H54.261ZM52.5484 47.6454H60.7463L60.8486 53.5244H52.6507L52.5484 47.6454ZM52.416 39.9244H60.6164L60.7296 46.5192H52.5292L52.416 39.9244ZM52.2895 32.6139H57.1121L60.579 37.8154L60.5965 38.7957H52.3961L52.2895 32.6139ZM52.1639 25.1999H52.1705L56.3589 31.4843H52.2704L52.1639 25.1999ZM46.996 61.0234H43.4559L43.3468 54.6481H51.5472L51.6562 61.0234H46.996ZM43.227 47.6454H51.4249L51.5273 53.5244H43.3269L43.227 47.6454ZM43.1663 44.1732L42.0561 44.8523L42.0844 46.5192H39.3324L37.4916 47.6454H42.1035L42.2059 53.5244H35.7706L35.5625 54.6489H42.2259L42.3349 61.0243H34.1345L34.0929 58.5924L32.9778 58.9712L33.0127 61.0243H24.7408L22.9699 61.091L22.9332 61.0243H20.7138L21.8764 59.1289L21.7698 58.9378L22.6062 57.5938L22.8908 57.4729L24.6209 54.6498H29.6698L30.6218 54.2527L30.7417 53.5252H25.3125L28.9158 47.6462H31.6995L31.8843 46.52H29.6066L32.6773 41.5111L32.7381 45.0342L33.8482 44.3343L33.7725 39.9252H40.8444L41.3055 39.6307L40.6664 38.7957H34.3417L38.134 32.6139H41.8464L41.9096 36.2579L43.0289 36.0994L42.9707 32.6139H51.1686L51.2751 38.7957H49.3802L48.895 39.9252H51.2942L51.4074 46.52H43.207L43.1663 44.1732ZM40.3277 29.0391L41.7449 26.7249L41.8273 31.4843H38.8281L40.3277 29.0391ZM46.996 25.1999H51.0404L51.1486 31.4843H42.9482L42.8417 25.1999H46.996ZM46.996 18.163L47.2257 17.7859L51.4157 24.0695H43.3743L46.996 18.163ZM73.6776 49.9579L47.2997 9.70117L17.4316 62.0629H81.6084L73.6776 49.9579Z" fill="white"/>
<path d="M40.3744 37.1347L49.8264 35.7891L46.0142 44.6588L44.0319 42.6691L36.1186 47.5245L34.232 57.6589L23.9071 61.1845L22.3525 58.4006L31.2761 54.6965L32.7349 45.8293L42.3783 39.7459L40.3744 37.1347Z" fill="#EC2024"/>
</g>
<defs>
<clipPath id="clip0_1268_12441">
<rect width="265.846" height="72" fill="white"/>
</clipPath>
</defs>
</svg>
