<svg width="40" height="40" viewBox="0 0 40 40" fill="none" xmlns="http://www.w3.org/2000/svg">
<rect width="40" height="40" rx="20" fill="#54A8FF"/>
<path d="M7 29.454V26.1449C7 25.4752 7.17235 24.8597 7.51705 24.2983C7.86174 23.737 8.3197 23.3086 8.89091 23.0131C10.1121 22.4025 11.353 21.9445 12.6136 21.6392C13.8742 21.3339 15.1545 21.1813 16.4545 21.1813C17.7545 21.1813 19.0348 21.3339 20.2955 21.6392C21.5561 21.9445 22.797 22.4025 24.0182 23.0131C24.5894 23.3086 25.0473 23.737 25.392 24.2983C25.7367 24.8597 25.9091 25.4752 25.9091 26.1449V29.454H7ZM28.2727 29.454V25.9086C28.2727 25.0419 28.0314 24.2097 27.5489 23.412C27.0663 22.6142 26.3818 21.9298 25.4955 21.3586C26.5 21.4767 27.4455 21.6786 28.3318 21.9642C29.2182 22.2498 30.0455 22.5995 30.8136 23.0131C31.5227 23.407 32.0644 23.8453 32.4386 24.3279C32.8129 24.8105 33 25.3373 33 25.9086V29.454H28.2727ZM16.4545 19.9995C15.1545 19.9995 14.0417 19.5366 13.1159 18.6108C12.1902 17.6851 11.7273 16.5722 11.7273 15.2722C11.7273 13.9722 12.1902 12.8593 13.1159 11.9336C14.0417 11.0078 15.1545 10.5449 16.4545 10.5449C17.7545 10.5449 18.8674 11.0078 19.7932 11.9336C20.7189 12.8593 21.1818 13.9722 21.1818 15.2722C21.1818 16.5722 20.7189 17.6851 19.7932 18.6108C18.8674 19.5366 17.7545 19.9995 16.4545 19.9995ZM28.2727 15.2722C28.2727 16.5722 27.8098 17.6851 26.8841 18.6108C25.9583 19.5366 24.8455 19.9995 23.5455 19.9995C23.3288 19.9995 23.053 19.9748 22.7182 19.9256C22.3833 19.8764 22.1076 19.8222 21.8909 19.7631C22.4227 19.1328 22.8314 18.4336 23.117 17.6654C23.4027 16.8972 23.5455 16.0995 23.5455 15.2722C23.5455 14.4449 23.4027 13.6472 23.117 12.879C22.8314 12.1108 22.4227 11.4116 21.8909 10.7813C22.1667 10.6828 22.4424 10.6188 22.7182 10.5892C22.9939 10.5597 23.2697 10.5449 23.5455 10.5449C24.8455 10.5449 25.9583 11.0078 26.8841 11.9336C27.8098 12.8593 28.2727 13.9722 28.2727 15.2722ZM9.36364 27.0904H23.5455V26.1449C23.5455 25.9283 23.4913 25.7313 23.383 25.554C23.2746 25.3767 23.1318 25.2389 22.9545 25.1404C21.8909 24.6086 20.8174 24.2097 19.7341 23.9438C18.6508 23.6779 17.5576 23.5449 16.4545 23.5449C15.3515 23.5449 14.2583 23.6779 13.175 23.9438C12.0917 24.2097 11.0182 24.6086 9.95455 25.1404C9.77727 25.2389 9.63447 25.3767 9.52614 25.554C9.4178 25.7313 9.36364 25.9283 9.36364 26.1449V27.0904ZM16.4545 17.6358C17.1045 17.6358 17.661 17.4044 18.1239 16.9415C18.5867 16.4786 18.8182 15.9222 18.8182 15.2722C18.8182 14.6222 18.5867 14.0658 18.1239 13.6029C17.661 13.14 17.1045 12.9086 16.4545 12.9086C15.8045 12.9086 15.2481 13.14 14.7852 13.6029C14.3223 14.0658 14.0909 14.6222 14.0909 15.2722C14.0909 15.9222 14.3223 16.4786 14.7852 16.9415C15.2481 17.4044 15.8045 17.6358 16.4545 17.6358Z" fill="white"/>
</svg>
