<svg width="40" height="40" viewBox="0 0 40 40" fill="none" xmlns="http://www.w3.org/2000/svg">
<rect width="40" height="40" rx="20" fill="#EB5757"/>
<path d="M27.8629 9.06256H26.1749V8.43715C26.175 8.37974 26.1637 8.32289 26.1417 8.26984C26.1197 8.2168 26.0875 8.1686 26.0469 8.128C26.0063 8.08741 25.9581 8.05521 25.9051 8.03325C25.8521 8.01128 25.7952 7.99999 25.7378 8H22.0927C21.9781 8.00212 21.869 8.0491 21.7887 8.13086C21.7085 8.21261 21.6635 8.3226 21.6635 8.43716C21.6635 8.55172 21.7085 8.66171 21.7888 8.74346C21.869 8.82521 21.9782 8.87219 22.0927 8.8743H25.3006V16.7251C25.2993 17.9614 24.8075 19.1466 23.9333 20.0208C23.0591 20.895 21.8739 21.3867 20.6376 21.3881H19.3624C18.1261 21.3867 16.9409 20.895 16.0667 20.0208C15.1925 19.1466 14.7007 17.9614 14.6993 16.7251V8.8743H19.6908L19.3308 9.46983C19.2956 9.52942 19.2749 9.59648 19.2705 9.66557C19.266 9.73465 19.2779 9.80382 19.3052 9.86744C19.3325 9.93107 19.3744 9.98737 19.4275 10.0318C19.4806 10.0762 19.5434 10.1074 19.6109 10.123L21.1578 10.4645L19.6495 12.4885C19.5926 12.5647 19.5622 12.6575 19.5628 12.7527C19.5635 12.8478 19.5952 12.9402 19.6531 13.0157L21.3721 15.2569C21.407 15.3025 21.4506 15.3407 21.5002 15.3694C21.5499 15.3981 21.6048 15.4168 21.6617 15.4243C21.7186 15.4318 21.7765 15.428 21.8319 15.4132C21.8874 15.3984 21.9393 15.3728 21.9849 15.3378C22.0304 15.3029 22.0687 15.2593 22.0974 15.2096C22.1261 15.1599 22.1447 15.1051 22.1523 15.0482C22.1598 14.9913 22.156 14.9334 22.1412 14.878C22.1263 14.8225 22.1007 14.7706 22.0658 14.725L20.5479 12.7459L22.263 10.4445C22.3059 10.3857 22.3335 10.3172 22.3434 10.2451C22.3533 10.173 22.3452 10.0996 22.3198 10.0315C22.2944 9.96329 22.2525 9.90247 22.1979 9.85445C22.1432 9.80643 22.0775 9.7727 22.0067 9.75628L20.3945 9.40067L20.8401 8.66341C20.8776 8.59667 20.8973 8.52139 20.8972 8.44485C20.8972 8.3683 20.8774 8.29305 20.8398 8.22638C20.8022 8.15971 20.748 8.10385 20.6825 8.0642C20.617 8.02454 20.5425 8.00243 20.4659 8H14.2622C14.2048 7.99999 14.1479 8.01128 14.0949 8.03325C14.0419 8.05521 13.9937 8.08741 13.9531 8.128C13.9125 8.1686 13.8803 8.2168 13.8583 8.26984C13.8363 8.32289 13.825 8.37974 13.8251 8.43715V9.06256H12.1371C11.5705 9.06321 11.0273 9.28858 10.6267 9.68922C10.226 10.0899 10.0006 10.6331 10 11.1996V13.75C10.0018 14.8875 10.4169 15.9855 11.168 16.8398C11.9191 17.694 12.9551 18.2461 14.083 18.3933C14.3505 19.2322 14.8134 19.9956 15.4336 20.6206C16.0538 21.2456 16.8135 21.7144 17.6503 21.9884V25.3396C17.1366 25.5076 16.689 25.8335 16.3715 26.271C16.054 26.7084 15.8828 27.2349 15.8823 27.7754V28.2498H15.5374C15.0835 28.2502 14.6483 28.4307 14.3273 28.7516C14.0063 29.0726 13.8256 29.5077 13.8251 29.9616V32.0432C13.825 32.1006 13.8363 32.1575 13.8583 32.2105C13.8803 32.2636 13.9125 32.3118 13.9531 32.3523C13.9937 32.3929 14.0418 32.4251 14.0949 32.4471C14.1479 32.4691 14.2048 32.4804 14.2622 32.4804H25.7378C25.7952 32.4804 25.8521 32.4691 25.9051 32.4471C25.9582 32.4251 26.0064 32.3929 26.0469 32.3523C26.0875 32.3118 26.1197 32.2636 26.1417 32.2105C26.1637 32.1575 26.175 32.1006 26.175 32.0432V29.9616C26.1744 29.5077 25.9938 29.0726 25.6727 28.7516C25.3517 28.4307 24.9166 28.2502 24.4626 28.2497H24.2622C24.356 27.6096 24.2137 26.9572 23.8618 26.4144C23.5098 25.8716 22.9723 25.4754 22.3496 25.2998L22.3497 21.9884C23.1865 21.7144 23.9462 21.2456 24.5664 20.6206C25.1866 19.9956 25.6495 19.2322 25.917 18.3933C27.0449 18.2461 28.0809 17.694 28.832 16.8398C29.5831 15.9855 29.9982 14.8875 30 13.75V11.1996C29.9993 10.6331 29.774 10.0899 29.3733 9.68921C28.9727 9.28858 28.4295 9.06321 27.8629 9.06256ZM10.8743 13.75V11.1996C10.8747 10.8648 11.0078 10.5439 11.2446 10.3071C11.4813 10.0704 11.8023 9.93724 12.1371 9.93685H13.8251C13.8431 10.2559 13.7745 17.4486 13.8816 17.4728C13.0309 17.2883 12.2688 16.8186 11.7218 16.1414C11.1748 15.4643 10.8758 14.6204 10.8743 13.75ZM18.5246 22.192C19.5051 22.3024 20.4949 22.3024 21.4754 22.1921V25.2132H18.5246V22.192ZM23.3879 27.7754V28.6852C23.3877 28.7427 23.3988 28.7998 23.4207 28.853C23.4425 28.9062 23.4747 28.9546 23.5153 28.9954C23.5559 29.0362 23.6042 29.0685 23.6574 29.0906C23.7105 29.1127 23.7675 29.124 23.8251 29.124H24.4626C24.6848 29.1242 24.8977 29.2125 25.0549 29.3695C25.212 29.5266 25.3004 29.7395 25.3007 29.9616V31.6061H14.6993V29.9616C14.6996 29.7395 14.788 29.5266 14.9451 29.3695C15.1023 29.2125 15.3152 29.1242 15.5374 29.124H21.8327C21.9472 29.1218 22.0562 29.0748 22.1363 28.993C22.2165 28.9113 22.2614 28.8014 22.2614 28.6869C22.2614 28.5724 22.2165 28.4625 22.1363 28.3807C22.0562 28.299 21.9471 28.252 21.8327 28.2497H16.7566V27.7754C16.7565 27.3285 16.9337 26.8998 17.2493 26.5834C17.5649 26.2669 17.9932 26.0886 18.4401 26.0875H21.7001C22.1476 26.088 22.5766 26.2661 22.893 26.5825C23.2094 26.8989 23.3874 27.328 23.3879 27.7754ZM29.1257 13.75C29.1242 14.6204 28.8252 15.4643 28.2782 16.1414C27.7312 16.8186 26.9691 17.2883 26.1184 17.4728C26.2261 17.387 26.1568 10.2968 26.175 9.93685H27.8629C28.1977 9.93724 28.5187 10.0704 28.7554 10.3071C28.9922 10.5439 29.1253 10.8648 29.1257 11.1996V13.75Z" fill="white"/>
</svg>
