<svg width="48" height="48" viewBox="0 0 48 48" fill="none" xmlns="http://www.w3.org/2000/svg">
<rect width="48" height="48" rx="4" fill="#003C7A" fill-opacity="0.2"/>
<path d="M36.9562 32.3196L32.8075 12.5946C32.7538 12.3367 32.6497 12.0919 32.5012 11.8743C32.3526 11.6567 32.1626 11.4706 31.9419 11.3267C31.7212 11.1828 31.4742 11.0839 31.2152 11.0357C30.9562 10.9875 30.6902 10.991 30.4325 11.0459L24.5812 12.3034C24.0637 12.4167 23.6118 12.7298 23.3239 13.1746C23.036 13.6193 22.9353 14.1598 23.0437 14.6784L27.1925 34.4034C27.285 34.8534 27.5295 35.2579 27.8851 35.5488C28.2407 35.8397 28.6856 35.9994 29.145 36.0009C29.287 36.0007 29.4286 35.9856 29.5675 35.9559L35.4188 34.6984C35.9369 34.5848 36.3893 34.2711 36.6772 33.8256C36.9652 33.38 37.0655 32.8388 36.9562 32.3196ZM25 14.2696C25 14.2621 25 14.2584 25 14.2584L30.85 13.0084L31.2663 14.9921L25.4163 16.2509L25 14.2696ZM25.8275 18.2034L31.68 16.9471L32.0975 18.9346L26.25 20.1921L25.8275 18.2034ZM26.6575 22.1496L32.51 20.8921L34.1725 28.7971L28.32 30.0546L26.6575 22.1496ZM35 32.7434L29.15 33.9934L28.7337 32.0096L34.5837 30.7509L35 32.7321C35 32.7396 35 32.7434 35 32.7434ZM21 12.0009H15C14.4696 12.0009 13.9609 12.2116 13.5858 12.5867C13.2107 12.9617 13 13.4705 13 14.0009V34.0009C13 34.5313 13.2107 35.04 13.5858 35.4151C13.9609 35.7902 14.4696 36.0009 15 36.0009H21C21.5304 36.0009 22.0391 35.7902 22.4142 35.4151C22.7893 35.04 23 34.5313 23 34.0009V14.0009C23 13.4705 22.7893 12.9617 22.4142 12.5867C22.0391 12.2116 21.5304 12.0009 21 12.0009ZM15 14.0009H21V16.0009H15V14.0009ZM15 18.0009H21V30.0009H15V18.0009ZM21 34.0009H15V32.0009H21V34.0009Z" fill="#003C7A"/>
</svg>
