<svg width="32" height="32" viewBox="0 0 32 32" fill="none" xmlns="http://www.w3.org/2000/svg">
<rect x="-0.4" y="-0.4" width="31.2" height="31.2" rx="15.6" transform="matrix(0 -1 -1 0 31.2 31.2)" stroke="#003C7A" stroke-width="0.8"/>
<path fill-rule="evenodd" clip-rule="evenodd" d="M24.4 16.1929C24.5328 16.06 24.6074 15.8797 24.6074 15.6918C24.6074 15.5039 24.5328 15.3236 24.4 15.1907L18.7269 9.5175C18.6619 9.44783 18.5837 9.39194 18.4967 9.35319C18.4097 9.31443 18.3158 9.29359 18.2206 9.29191C18.1253 9.29023 18.0308 9.30774 17.9425 9.34341C17.8542 9.37907 17.7739 9.43216 17.7066 9.4995C17.6393 9.56684 17.5862 9.64705 17.5505 9.73535C17.5148 9.82366 17.4973 9.91823 17.499 10.0135C17.5007 10.1087 17.5215 10.2026 17.5603 10.2896C17.599 10.3765 17.6549 10.4548 17.7246 10.5198L22.1875 14.9827H8.77046C8.58238 14.9827 8.40201 15.0574 8.26902 15.1904C8.13603 15.3233 8.06131 15.5037 8.06131 15.6918C8.06131 15.8799 8.13603 16.0602 8.26902 16.1932C8.40201 16.3262 8.58238 16.4009 8.77046 16.4009H22.1875L17.7246 20.8638C17.6549 20.9288 17.599 21.007 17.5603 21.094C17.5215 21.181 17.5007 21.2749 17.499 21.3701C17.4973 21.4654 17.5148 21.5599 17.5505 21.6482C17.5862 21.7365 17.6393 21.8168 17.7066 21.8841C17.7739 21.9514 17.8542 22.0045 17.9425 22.0402C18.0308 22.0759 18.1253 22.0934 18.2206 22.0917C18.3158 22.09 18.4097 22.0692 18.4967 22.0304C18.5837 21.9916 18.6619 21.9358 18.7269 21.8661L24.4 16.1929Z" fill="#003C7A"/>
</svg>
