<svg width="40" height="40" viewBox="0 0 40 40" fill="none" xmlns="http://www.w3.org/2000/svg">
<rect width="40" height="40" rx="20" fill="#EB5757"/>
<path d="M26.6149 13.256C26.4639 13.0685 26.1897 13.039 26.0022 13.1899C25.8148 13.3409 25.7853 13.6152 25.9362 13.8025C26.2179 14.1523 26.6287 14.3442 27.0327 14.4302V14.4464C27.0327 14.687 27.2278 14.8821 27.4684 14.8821C27.7037 14.8821 27.8953 14.6956 27.9038 14.4624C28.6163 14.3547 29.119 13.8944 29.1993 13.2625C29.2906 12.5429 28.8214 11.852 28.0581 11.5822C28.0045 11.5632 27.9532 11.545 27.9041 11.5273V10.3791C28.013 10.4222 28.0895 10.4823 28.13 10.5401C28.2683 10.7371 28.54 10.7847 28.7369 10.6464C28.9339 10.5082 28.9815 10.2365 28.8433 10.0395C28.6595 9.77754 28.3313 9.55738 27.9041 9.47791V9.43569C27.9041 9.1951 27.709 9 27.4684 9C27.2278 9 27.0327 9.1951 27.0327 9.43569V9.50945C26.9846 9.52091 26.936 9.53398 26.8868 9.5488C26.3813 9.70107 25.9998 10.1915 25.959 10.7415C25.9187 11.2859 26.2078 11.7587 26.7326 12.0061C26.8 12.0379 26.9028 12.0809 27.0327 12.132V13.5286C26.8658 13.4704 26.7157 13.3812 26.6149 13.256ZM28.3348 13.1527C28.3087 13.3588 28.1549 13.5066 27.9041 13.5743V12.4622C28.2374 12.6333 28.3633 12.9282 28.3348 13.1527ZM26.828 10.8059C26.839 10.6576 26.921 10.5154 27.0327 10.4358V11.1794C26.8851 11.0884 26.8163 10.9631 26.828 10.8059Z" fill="white"/>
<path d="M29.5643 23.1797H26.0578C25.8171 23.1797 25.6221 23.3748 25.6221 23.6154V30.8725C25.6221 31.1131 25.8171 31.3082 26.0578 31.3082H29.5643C29.805 31.3082 30 31.1131 30 30.8725V23.6154C30 23.3747 29.805 23.1797 29.5643 23.1797ZM29.1287 30.4368H26.4935V24.0511H29.1287V30.4368Z" fill="white"/>
<path d="M24.4276 18.4238H20.921C20.6804 18.4238 20.4854 18.6189 20.4854 18.8595V30.872C20.4854 31.1126 20.6804 31.3077 20.921 31.3077H24.4276C24.6683 31.3077 24.8633 31.1126 24.8633 30.872V18.8595C24.8633 18.6189 24.6683 18.4238 24.4276 18.4238ZM23.9919 30.4363H21.3567V19.2952H23.9919V30.4363Z" fill="white"/>
<path d="M14.1522 16.2656H10.6457C10.405 16.2656 10.21 16.4607 10.21 16.7013V30.8715C10.21 31.1121 10.405 31.3072 10.6457 31.3072H14.1522C14.3929 31.3072 14.5879 31.1121 14.5879 30.8715V16.7013C14.5879 16.4607 14.3929 16.2656 14.1522 16.2656ZM13.7165 30.4358H11.0813V17.137H13.7165V30.4358Z" fill="white"/>
<path d="M19.289 19.7188H15.7824C15.5417 19.7188 15.3467 19.9139 15.3467 20.1544V30.8723C15.3467 31.1128 15.5417 31.3079 15.7824 31.3079H19.289C19.5296 31.3079 19.7246 31.1128 19.7246 30.8723V20.1544C19.7246 19.9138 19.5295 19.7188 19.289 19.7188ZM18.8533 30.4366H16.2181V20.5901H18.8533V30.4366Z" fill="white"/>
<path d="M17.2871 16.7047L22.5845 14.2559L28.0047 19.5269L27.4604 19.3943C27.2265 19.3374 26.9909 19.4807 26.9339 19.7145C26.8769 19.9482 27.0203 20.1839 27.254 20.2409L29.2904 20.7372C29.3246 20.7455 29.3592 20.7495 29.3936 20.7495C29.5031 20.7495 29.6101 20.7082 29.6918 20.6315C29.7992 20.5307 29.8483 20.3825 29.8225 20.2375L29.4555 18.1755C29.4133 17.9385 29.1872 17.7807 28.9502 17.8228C28.7133 17.865 28.5554 18.0913 28.5976 18.3281L28.7181 19.0053L22.9773 13.4223C22.848 13.2965 22.6545 13.2635 22.4907 13.3392L17.1818 15.7934L10.7268 9.99818C10.5477 9.83746 10.2723 9.85231 10.1115 10.0313C9.95075 10.2104 9.96557 10.4859 10.1446 10.6466L16.8132 16.6335C16.9427 16.7497 17.129 16.7777 17.2871 16.7047Z" fill="white"/>
</svg>
