<svg width="24" height="25" viewBox="0 0 24 25" fill="none" xmlns="http://www.w3.org/2000/svg">
<path d="M20.4004 9.1084V6.00527C20.4004 5.84765 20.3693 5.69158 20.3089 5.54597C20.2486 5.40036 20.1601 5.26807 20.0486 5.15665L18.3518 3.45977C18.1268 3.23483 17.8217 3.10845 17.5035 3.1084H8.40039C8.08213 3.1084 7.77691 3.23483 7.55186 3.45987C7.32682 3.68491 7.20039 3.99014 7.20039 4.3084V21.1084C7.20039 21.4267 7.32682 21.7319 7.55186 21.9569C7.77691 22.182 8.08213 22.3084 8.40039 22.3084H20.4004C20.7187 22.3084 21.0239 22.182 21.2489 21.9569C21.474 21.7319 21.6004 21.4267 21.6004 21.1084V10.3084C21.6004 9.99014 21.474 9.68491 21.2489 9.45987C21.0239 9.23483 20.7187 9.1084 20.4004 9.1084ZM13.2004 19.3084C13.2004 19.4675 13.1372 19.6201 13.0247 19.7327C12.9121 19.8452 12.7595 19.9084 12.6004 19.9084H11.4004C11.2413 19.9084 11.0886 19.8452 10.9761 19.7327C10.8636 19.6201 10.8004 19.4675 10.8004 19.3084V18.1084C10.8004 17.9493 10.8636 17.7967 10.9761 17.6841C11.0886 17.5716 11.2413 17.5084 11.4004 17.5084H12.6004C12.7595 17.5084 12.9121 17.5716 13.0247 17.6841C13.1372 17.7967 13.2004 17.9493 13.2004 18.1084V19.3084ZM13.2004 14.5084C13.2004 14.6675 13.1372 14.8201 13.0247 14.9327C12.9121 15.0452 12.7595 15.1084 12.6004 15.1084H11.4004C11.2413 15.1084 11.0886 15.0452 10.9761 14.9327C10.8636 14.8201 10.8004 14.6675 10.8004 14.5084V13.3084C10.8004 13.1493 10.8636 12.9967 10.9761 12.8841C11.0886 12.7716 11.2413 12.7084 11.4004 12.7084H12.6004C12.7595 12.7084 12.9121 12.7716 13.0247 12.8841C13.1372 12.9967 13.2004 13.1493 13.2004 13.3084V14.5084ZM18.0004 19.3084C18.0004 19.4675 17.9372 19.6201 17.8247 19.7327C17.7121 19.8452 17.5595 19.9084 17.4004 19.9084H16.2004C16.0413 19.9084 15.8886 19.8452 15.7761 19.7327C15.6636 19.6201 15.6004 19.4675 15.6004 19.3084V18.1084C15.6004 17.9493 15.6636 17.7967 15.7761 17.6841C15.8886 17.5716 16.0413 17.5084 16.2004 17.5084H17.4004C17.5595 17.5084 17.7121 17.5716 17.8247 17.6841C17.9372 17.7967 18.0004 17.9493 18.0004 18.1084V19.3084ZM18.0004 14.5084C18.0004 14.6675 17.9372 14.8201 17.8247 14.9327C17.7121 15.0452 17.5595 15.1084 17.4004 15.1084H16.2004C16.0413 15.1084 15.8886 15.0452 15.7761 14.9327C15.6636 14.8201 15.6004 14.6675 15.6004 14.5084V13.3084C15.6004 13.1493 15.6636 12.9967 15.7761 12.8841C15.8886 12.7716 16.0413 12.7084 16.2004 12.7084H17.4004C17.5595 12.7084 17.7121 12.7716 17.8247 12.8841C17.9372 12.9967 18.0004 13.1493 18.0004 13.3084V14.5084ZM18.0004 10.3084H9.60039V5.5084H15.6004V7.3084C15.6004 7.46753 15.6636 7.62014 15.7761 7.73266C15.8886 7.84518 16.0413 7.9084 16.2004 7.9084H18.0004V10.3084ZM4.80039 7.9084H3.60039C3.28213 7.9084 2.97691 8.03483 2.75186 8.25987C2.52682 8.48491 2.40039 8.79014 2.40039 9.1084L2.40039 21.1084C2.40039 21.4267 2.52682 21.7319 2.75186 21.9569C2.97691 22.182 3.28213 22.3084 3.60039 22.3084H4.80039C5.11865 22.3084 5.42388 22.182 5.64892 21.9569C5.87396 21.7319 6.00039 21.4267 6.00039 21.1084V9.1084C6.00039 8.79014 5.87396 8.48491 5.64892 8.25987C5.42388 8.03483 5.11865 7.9084 4.80039 7.9084Z" fill="white"/>
</svg>
