<svg width="40" height="41" viewBox="0 0 40 41" fill="none" xmlns="http://www.w3.org/2000/svg">
<rect y="0.708496" width="40" height="40" rx="20" fill="white"/>
<path d="M20 24.8335C22.2091 24.8335 24 23.0426 24 20.8335C24 18.6244 22.2091 16.8335 20 16.8335C17.7909 16.8335 16 18.6244 16 20.8335C16 23.0426 17.7909 24.8335 20 24.8335Z" stroke="#003C7A" stroke-width="2" stroke-linecap="round" stroke-linejoin="round"/>
<path d="M25 10.8335H15C12.2386 10.8335 10 13.0721 10 15.8335V25.8335C10 28.5949 12.2386 30.8335 15 30.8335H25C27.7614 30.8335 30 28.5949 30 25.8335V15.8335C30 13.0721 27.7614 10.8335 25 10.8335Z" stroke="#003C7A" stroke-width="2" stroke-linecap="round" stroke-linejoin="round"/>
</svg>
