<svg width="14" height="21" viewBox="0 0 14 21" fill="none" xmlns="http://www.w3.org/2000/svg">
<path d="M7 10.2085C6.33696 10.2085 5.70107 9.9451 5.23223 9.47626C4.76339 9.00742 4.5 8.37154 4.5 7.7085C4.5 7.04545 4.76339 6.40957 5.23223 5.94073C5.70107 5.47189 6.33696 5.2085 7 5.2085C7.66304 5.2085 8.29893 5.47189 8.76777 5.94073C9.23661 6.40957 9.5 7.04545 9.5 7.7085C9.5 8.0368 9.43534 8.36189 9.3097 8.66521C9.18406 8.96852 8.99991 9.24412 8.76777 9.47626C8.53562 9.70841 8.26002 9.89256 7.95671 10.0182C7.65339 10.1438 7.3283 10.2085 7 10.2085ZM7 0.708496C5.14348 0.708496 3.36301 1.44599 2.05025 2.75875C0.737498 4.0715 0 5.85198 0 7.7085C0 12.9585 7 20.7085 7 20.7085C7 20.7085 14 12.9585 14 7.7085C14 5.85198 13.2625 4.0715 11.9497 2.75875C10.637 1.44599 8.85652 0.708496 7 0.708496Z" fill="white"/>
</svg>
