<svg width="24" height="25" viewBox="0 0 24 25" fill="none" xmlns="http://www.w3.org/2000/svg">
<path d="M18.984 16.6288C17.8172 15.5954 16.6332 14.9695 15.4808 16.0013L14.7927 16.6249C14.2892 17.0776 13.3531 19.1927 9.73382 14.8813C6.11531 10.5753 8.26863 9.9048 8.77286 9.45602L9.46475 8.83162C10.6111 7.79746 10.1785 6.49559 9.3517 5.15547L8.85275 4.34375C8.02217 3.00676 7.11773 2.1287 5.96834 3.1613L5.3473 3.72326C4.8393 4.10648 3.41933 5.35216 3.07489 7.71863C2.66036 10.5581 3.96803 13.8096 6.96398 17.3773C9.95617 20.9465 12.8858 22.7393 15.6609 22.7081C17.9672 22.6823 19.3601 21.4008 19.7957 20.9348L20.419 20.3721C21.5654 19.3402 20.8531 18.2897 19.6857 17.254L18.984 16.6288Z" fill="white"/>
</svg>
