<svg width="24" height="25" viewBox="0 0 24 25" fill="none" xmlns="http://www.w3.org/2000/svg">
<g clip-path="url(#clip0_1331_82)">
<path d="M20.7273 0.5H3.27273C1.46525 0.5 0 1.96525 0 3.77273V21.2273C0 23.0347 1.46525 24.5 3.27273 24.5H20.7273C22.5347 24.5 24 23.0347 24 21.2273V3.77273C24 1.96525 22.5347 0.5 20.7273 0.5Z" fill="#0077B5"/>
<path d="M8.6456 7.04545C8.6456 7.45001 8.52563 7.84547 8.30088 8.18185C8.07612 8.51822 7.75666 8.78039 7.3829 8.93521C7.00915 9.09002 6.59787 9.13053 6.20109 9.05161C5.80432 8.97268 5.43985 8.77787 5.15379 8.49181C4.86773 8.20575 4.67292 7.84128 4.59399 7.4445C4.51507 7.04772 4.55557 6.63645 4.71039 6.26269C4.8652 5.88894 5.12738 5.56948 5.46375 5.34472C5.80012 5.11996 6.19559 5 6.60014 5C7.14263 5 7.6629 5.2155 8.0465 5.5991C8.4301 5.9827 8.6456 6.50297 8.6456 7.04545Z" fill="white"/>
<path d="M8.18179 10.4545V19.4914C8.18215 19.558 8.16933 19.6241 8.14406 19.6858C8.1188 19.7475 8.08159 19.8036 8.03458 19.8509C7.98757 19.8981 7.93167 19.9356 7.87011 19.9612C7.80856 19.9868 7.74255 20 7.67588 20H5.51997C5.4533 20.0002 5.38726 19.9872 5.32563 19.9617C5.26401 19.9363 5.20801 19.899 5.16087 19.8518C5.11373 19.8047 5.07637 19.7487 5.05094 19.6871C5.02552 19.6254 5.01252 19.5594 5.0127 19.4927V10.4545C5.0127 10.32 5.06614 10.191 5.16127 10.0958C5.25641 10.0007 5.38543 9.94727 5.51997 9.94727H7.67588C7.81018 9.94763 7.93886 10.0012 8.03369 10.0963C8.12853 10.1914 8.18179 10.3202 8.18179 10.4545Z" fill="white"/>
<path d="M19.4507 15.1592V19.5337C19.4509 19.595 19.439 19.6557 19.4156 19.7124C19.3922 19.7691 19.3579 19.8206 19.3145 19.8639C19.2712 19.9072 19.2197 19.9416 19.1631 19.965C19.1064 19.9883 19.0457 20.0003 18.9844 20.0001H16.6662C16.6049 20.0003 16.5442 19.9883 16.4875 19.965C16.4308 19.9416 16.3794 19.9072 16.336 19.8639C16.2927 19.8206 16.2583 19.7691 16.235 19.7124C16.2116 19.6557 16.1997 19.595 16.1998 19.5337V15.2942C16.1998 14.6615 16.3853 12.5233 14.5457 12.5233C13.1207 12.5233 12.8303 13.9865 12.773 14.6437V19.5337C12.773 19.6562 12.7248 19.7738 12.6388 19.8611C12.5528 19.9484 12.436 19.9983 12.3135 20.0001H10.0744C10.0132 20.0001 9.95262 19.988 9.89611 19.9646C9.83961 19.9411 9.78829 19.9067 9.74509 19.8634C9.70189 19.8201 9.66767 19.7687 9.64438 19.7121C9.62109 19.6555 9.6092 19.5949 9.60938 19.5337V10.4151C9.6092 10.3539 9.62109 10.2933 9.64438 10.2367C9.66767 10.1801 9.70189 10.1287 9.74509 10.0854C9.78829 10.0421 9.83961 10.0077 9.89611 9.98425C9.95262 9.9608 10.0132 9.94873 10.0744 9.94873H12.3135C12.4372 9.94873 12.5558 9.99786 12.6432 10.0853C12.7307 10.1728 12.7798 10.2914 12.7798 10.4151V11.2033C13.3089 10.4096 14.093 9.79736 15.7662 9.79736C19.4726 9.79736 19.4507 13.2583 19.4507 15.1592Z" fill="white"/>
</g>
<defs>
<clipPath id="clip0_1331_82">
<rect width="24" height="24" fill="white" transform="translate(0 0.5)"/>
</clipPath>
</defs>
</svg>
